<?xml version="1.0" encoding="utf-8"?>
<!-- Generator: Adobe Illustrator 25.1.0, SVG Export Plug-In . SVG Version: 6.00 Build 0)  -->
<svg version="1.1" id="Calque_1" xmlns="http://www.w3.org/2000/svg" xmlns:xlink="http://www.w3.org/1999/xlink" x="0px" y="0px"
	 viewBox="0 0 1000 1000" style="enable-background:new 0 0 1000 1000;" xml:space="preserve">
<style type="text/css">
	.st0{fill:#FFFFFF;}
</style>
<g>
	<path class="st0" d="M52.15,373.05c4.57,0.96,9.8,1.62,15.7,1.98c5.89,0.36,11.61,0.49,17.15,0.36c5.53-0.12,10.52-0.3,14.98-0.54
		c4.45-0.24,7.4-0.6,8.84-1.08c-2.65,9.63-5.12,19.19-7.4,28.7c-2.29,9.51-3.79,17.99-4.51,25.45
		c-10.83,2.89-21.96,6.56-33.39,11.01c-11.43,4.46-22.92,9.45-34.47,14.98c-2.65,1.93-3.37,4.93-2.17,9.02
		c1.2,4.09,3.25,8.12,6.14,12.09c2.89,3.97,6.19,7.22,9.93,9.75c3.73,2.53,6.8,2.94,9.2,1.26c14.44-9.15,29.06-16.6,43.86-22.38
		c14.8-5.77,29-9.93,42.59-12.45c13.59-2.53,26.41-3.43,38.44-2.71c12.03,0.72,22.44,2.89,31.22,6.5
		c8.78,3.61,15.76,8.54,20.94,14.8c5.17,6.25,7.76,13.83,7.76,22.74c4.57-3.13,6.62-8.07,6.14-14.8c-0.49-6.74-2.65-13.77-6.5-21.12
		c-3.85-7.34-8.97-14.2-15.34-20.57c-6.38-6.37-13.18-10.77-20.39-13.17c-17.09-5.78-38.62-6.98-64.61-3.61
		c1.2-7.7,2.89-15.94,5.05-24.73c2.17-8.78,5.17-18.47,9.02-29.06c23.34-10.83,44.45-24.42,63.35-40.79
		c18.89-16.36,36.28-36.94,52.16-61.72c2.4-3.85,5.11-8.54,8.12-14.08c3.01-5.53,5.71-11.43,8.12-17.69
		c2.4-6.25,4.33-12.63,5.78-19.13c1.44-6.5,2.04-12.63,1.8-18.41c-0.24-5.77-1.69-10.88-4.33-15.34
		c-2.65-4.45-6.86-7.88-12.63-10.29c-10.59-4.09-20.76-4.75-30.5-1.98c-9.75,2.77-18.77,7.34-27.07,13.72
		c-8.3,6.38-15.88,13.84-22.74,22.38c-6.86,8.54-12.7,16.67-17.51,24.37c-12.99,19.73-23.77,39.11-32.31,58.11
		c-8.54,19.01-16.3,38.26-23.28,57.75c-3.85,1.21-8.84,1.99-14.98,2.35c-6.14,0.36-12.81,0.3-20.03-0.18
		c-7.22-0.48-14.44-1.5-21.66-3.07c-7.22-1.56-13.72-3.55-19.49-5.96c-5.78-2.4-10.47-5.41-14.08-9.02
		c-3.61-3.61-5.3-7.82-5.05-12.63c-2.65,0.96-4.51,4.21-5.59,9.74c-1.08,5.54-0.72,11.61,1.08,18.23
		c1.8,6.62,5.29,12.94,10.47,18.95C35.12,366.8,42.52,370.89,52.15,373.05z M173.43,302.85c4.81-9.5,10.05-19.13,15.7-28.88
		c5.65-9.75,11.55-19.31,17.69-28.7c6.14-9.38,12.33-18.05,18.59-25.99c10.11-12.75,18.41-21.71,24.91-26.89
		c6.5-5.17,11.01-7.04,13.54-5.6c2.53,1.44,3.07,5.9,1.62,13.36c-1.44,7.46-5.05,17.45-10.83,29.96
		c-4.33,9.63-9.93,19.49-16.78,29.6c-6.86,10.11-14.44,19.73-22.74,28.88c-8.3,9.15-17.09,17.33-26.35,24.55
		c-9.27,7.22-18.35,12.63-27.25,16.24C164.64,321.2,168.61,312.36,173.43,302.85z"/>
	<path class="st0" d="M269.9,327.29c-5.07,5.46-9.89,11.79-14.47,19c-4.58,7.21-8.72,14.91-12.42,23.09
		c-3.7,8.18-6.48,16.08-8.33,23.68c-1.85,7.6-2.58,14.67-2.19,21.19c0.39,6.53,2.44,11.74,6.14,15.64c1.75,1.75,4,3.61,6.72,5.55
		c2.73,1.95,5.75,3.65,9.06,5.12c3.31,1.46,6.62,2.39,9.94,2.78c3.31,0.39,6.43-0.19,9.35-1.75c6.23-3.51,12.57-7.99,19-13.45
		c6.43-5.45,12.57-11.49,18.42-18.12c5.85-6.62,11.06-13.69,15.64-21.19c1.26-2.07,2.44-4.15,3.55-6.23
		c0.87,1.44,1.82,2.83,2.88,4.18c3.6,4.58,7.16,9.4,10.67,14.47c-7.41,5.65-14.67,11.69-21.78,18.12
		c-7.11,6.43-12.91,13.35-17.39,20.75c-2.92,4.87-4.33,9.16-4.24,12.86c0.1,3.7,1.17,6.87,3.22,9.5c2.05,2.63,4.87,4.63,8.48,5.99
		c3.61,1.36,7.5,2.19,11.69,2.48c4.19,0.29,8.48,0,12.86-0.88c4.38-0.88,8.33-2.29,11.84-4.24c5.26-2.92,10.23-6.53,14.91-10.82
		c4.68-4.28,8.43-8.91,11.25-13.88c2.82-4.97,4.43-10.08,4.82-15.35c0.39-5.26-0.88-10.52-3.8-15.78c-0.98-1.56-1.95-3.02-2.92-4.38
		c-0.98-1.36-1.95-2.82-2.92-4.38c1.56-1.75,4.92-4.53,10.08-8.33c5.16-3.8,10.76-7.7,16.81-11.69c6.04-3.99,11.88-7.6,17.54-10.82
		c5.65-3.22,9.94-5.12,12.86-5.7c1.17-0.19,2.09-0.19,2.78,0c0.68,0.2,1.21,0.34,1.61,0.44c0.39,0.1,0.73,0.1,1.02,0
		c0.29-0.1,0.83-0.53,1.61-1.32c-1.56-1.36-4.09-2.92-7.6-4.68c-3.51-1.75-6.63-2.44-9.35-2.05c-3.7,0.58-8.04,2.15-13.01,4.68
		c-4.97,2.54-9.99,5.51-15.05,8.91c-5.07,3.41-10.08,6.87-15.05,10.38c-4.97,3.51-9.31,6.43-13.01,8.77
		c-3.7-4.28-5.75-9.6-6.14-15.93c-0.39-6.33,0.19-12.42,1.75-18.27c1.56-5.85,3.95-10.86,7.16-15.05c3.22-4.19,6.67-6.18,10.38-5.99
		c-0.39,0.98-0.98,2.34-1.75,4.09c-0.78,1.75-1.46,3.61-2.05,5.55c-0.58,1.95-1.07,3.95-1.46,5.99c-0.39,2.05-0.39,3.85,0,5.41
		c0.58,2.15,1.56,4.14,2.92,5.99c1.36,1.85,2.87,3.36,4.53,4.53c1.65,1.17,3.31,2.05,4.97,2.63c1.65,0.58,2.97,0.69,3.95,0.29
		c-1.37-3.11-1.02-7.16,1.02-12.13c2.05-4.97,4.92-10.08,8.62-15.35c3.7-5.26,7.7-10.23,11.98-14.91
		c4.28-4.68,7.99-8.08,11.11-10.23c1.36-0.97,1.51-2.73,0.44-5.26c-1.07-2.53-2.63-5.01-4.68-7.45c-2.05-2.43-4.24-4.38-6.58-5.85
		c-2.34-1.46-4.19-1.7-5.55-0.73c-2.34,2.15-5.41,5.21-9.21,9.21c-3.8,4-8.23,10.09-13.3,18.27c-1.37-0.97-3.27-2.14-5.7-3.51
		c-2.44-1.36-5.12-2.53-8.04-3.51c-2.92-0.97-5.85-1.51-8.77-1.61c-2.92-0.1-5.46,0.54-7.6,1.9c-4.29,2.92-8.14,6.38-11.55,10.38
		c-3.41,4-6.19,8.33-8.33,13.01c-2.15,4.68-3.56,9.6-4.24,14.76c-0.41,3.1-0.48,6.18-0.22,9.24c-3.1,5.45-6.77,10.99-11.03,16.63
		c-6.04,7.99-12.18,15.15-18.42,21.48c-6.24,6.33-12.23,11.45-17.98,15.35c-5.75,3.9-10.18,5.55-13.3,4.97
		c-2.15-0.39-3.32-2.09-3.51-5.12c-0.2-3.02,0-6.48,0.58-10.38c0.58-3.9,1.46-7.75,2.63-11.55c1.17-3.8,2.24-6.67,3.22-8.62
		c3.51,1.56,6.72,2.54,9.65,2.92c2.92,0.39,6.33,0.1,10.23-0.88c5.45-1.75,10.38-5.21,14.76-10.38c4.38-5.16,8.08-10.72,11.11-16.66
		c3.02-5.94,5.36-11.64,7.02-17.1c1.65-5.45,2.48-9.25,2.48-11.4c0.39-4.48-1.75-8.18-6.43-11.11c-3.32-1.95-6.28-3.75-8.92-5.41
		c-2.63-1.65-5.22-2.92-7.75-3.8c-2.53-0.88-4.97-1.27-7.31-1.17c-2.34,0.1-4.87,0.83-7.6,2.19
		C279.74,317.84,274.97,321.83,269.9,327.29z M351.74,416.15c1.17,2.54,0.83,5.85-1.02,9.94c-1.85,4.09-4.38,8.09-7.6,11.98
		c-3.22,3.9-6.72,7.26-10.52,10.09c-3.8,2.83-7.07,4.34-9.79,4.53c2.53-7.21,6.48-13.69,11.84-19.44
		C340,427.5,345.7,421.8,351.74,416.15z M299.13,336.93c-0.39,3.32-1.32,7.31-2.78,11.98c-1.46,4.68-3.41,9.11-5.85,13.3
		c-2.44,4.19-5.17,7.65-8.18,10.38c-3.02,2.73-6.28,3.8-9.79,3.21c0-0.97,1.02-3.31,3.07-7.01c2.05-3.7,4.48-7.7,7.31-11.98
		c2.82-4.28,5.75-8.33,8.77-12.13C294.7,340.88,297.18,338.3,299.13,336.93z"/>
	<path class="st0" d="M446.78,495.47c2.4,2.88,6,4.79,10.79,5.76c8.16,1.92,15.47,2.46,21.95,1.62c6.48-0.84,12.11-4.86,16.91-12.05
		c2.64-3.84,5.51-8.7,8.63-14.57c3.11-5.87,5.99-12.23,8.63-19.07c2.64-6.84,4.86-13.91,6.66-21.23c1.8-7.31,2.75-14.33,2.88-21.05
		c0.12-6.71-0.78-12.89-2.7-18.53c-1.92-5.63-5.28-10.25-10.07-13.85c10.79,1.92,21.52,2.04,32.2,0.36
		c0.85-0.13,1.68-0.31,2.51-0.47c-1.84,6.08-3.41,11.95-4.67,17.56c-1.8,8.04-2.82,14.45-3.06,19.25
		c-0.24,3.84,0.84,7.26,3.24,10.25c2.4,3,5.4,5.4,8.99,7.19c3.6,1.8,7.43,2.94,11.51,3.42c4.08,0.48,7.67,0.12,10.79-1.08
		c5.04-2.16,10.73-6.84,17.09-14.03c3.56-4.03,7.06-8.33,10.51-12.89c-0.09,0.28-0.17,0.56-0.26,0.84
		c-2.88,9.48-5.04,17.09-6.48,22.84c-0.72,2.16,0.3,4.32,3.06,6.48c2.76,2.16,5.94,3.84,9.53,5.04c3.6,1.2,7.2,1.74,10.79,1.62
		c3.6-0.12,5.99-1.26,7.2-3.42c2.64-5.51,6.41-12.47,11.33-20.87c4.91-8.39,10.31-16.91,16.19-25.54
		c5.87-8.63,11.81-16.78,17.81-24.46c5.99-7.67,11.39-13.55,16.19-17.63c-0.72,1.68-1.98,5.34-3.78,10.97
		c-1.8,5.64-3.6,11.93-5.4,18.89c-1.8,6.96-3.18,13.91-4.14,20.87c-0.96,6.96-0.96,12.47,0,16.55c0.48,2.4,2.28,4.8,5.4,7.2
		c3.11,2.4,6.71,4.32,10.79,5.76c4.08,1.44,8.27,2.34,12.59,2.7c4.32,0.36,8.15-0.3,11.51-1.98c5.04-2.64,10.49-7.07,16.37-13.31
		c3.92-4.16,7.78-8.67,11.59-13.52c0.02,0.86,0.05,1.71,0.1,2.55c0.48,8.04,3,14.45,7.55,19.25c2.16,2.16,4.92,4.44,8.27,6.84
		c3.36,2.4,7.07,4.5,11.15,6.3c4.08,1.8,8.15,2.94,12.23,3.42c4.08,0.48,7.91-0.24,11.51-2.16c7.67-4.32,15.47-9.83,23.39-16.55
		c7.91-6.71,15.47-14.15,22.66-22.3c7.2-8.15,13.61-16.85,19.25-26.08c1.56-2.55,3.01-5.1,4.37-7.66c1.07,1.77,2.24,3.49,3.54,5.14
		c4.44,5.64,8.81,11.57,13.13,17.81c-9.12,6.96-18.05,14.39-26.8,22.3c-8.75,7.91-15.89,16.43-21.41,25.54
		c-3.6,6-5.33,11.28-5.22,15.83c0.12,4.56,1.44,8.45,3.96,11.69c2.52,3.24,6,5.69,10.43,7.38c4.44,1.67,9.24,2.7,14.39,3.06
		c5.15,0.36,10.43,0,15.83-1.08c5.4-1.08,10.25-2.82,14.57-5.22c6.48-3.6,12.59-8.03,18.35-13.31c5.76-5.27,10.37-10.97,13.85-17.09
		c3.47-6.12,5.45-12.41,5.94-18.89c0.48-6.48-1.08-12.95-4.68-19.43c-1.2-1.92-2.4-3.72-3.6-5.4c-1.2-1.67-2.4-3.47-3.6-5.4
		c1.92-2.16,6.05-5.58,12.41-10.25c6.35-4.68,13.25-9.47,20.69-14.39c7.43-4.91,14.63-9.35,21.59-13.31
		c6.95-3.96,12.23-6.3,15.83-7.02c1.44-0.24,2.57-0.24,3.42,0c0.84,0.24,1.5,0.42,1.98,0.54c0.48,0.12,0.9,0.12,1.26,0
		c0.36-0.12,1.02-0.66,1.98-1.62c-1.92-1.68-5.04-3.6-9.35-5.76c-4.32-2.16-8.16-3-11.51-2.52c-4.56,0.72-9.89,2.64-16.01,5.76
		c-6.12,3.12-12.29,6.78-18.53,10.97c-6.24,4.2-12.41,8.45-18.53,12.77c-6.12,4.32-11.46,7.91-16.01,10.79
		c-4.56-5.27-7.08-11.81-7.55-19.61c-0.48-7.79,0.24-15.29,2.16-22.48c1.92-7.2,4.86-13.37,8.81-18.53
		c3.96-5.16,8.21-7.61,12.77-7.38c-0.48,1.2-1.2,2.88-2.16,5.04c-0.96,2.16-1.8,4.44-2.52,6.84c-0.72,2.4-1.32,4.86-1.8,7.37
		c-0.48,2.52-0.48,4.74,0,6.66c0.72,2.64,1.92,5.1,3.6,7.37c1.67,2.28,3.54,4.14,5.58,5.58c2.03,1.44,4.08,2.52,6.12,3.24
		c2.04,0.72,3.65,0.84,4.86,0.36c-1.68-3.83-1.26-8.81,1.26-14.93c2.52-6.12,6.05-12.41,10.61-18.89
		c4.55-6.48,9.47-12.59,14.75-18.35c5.27-5.76,9.83-9.95,13.67-12.59c1.68-1.2,1.86-3.36,0.54-6.48c-1.32-3.11-3.24-6.17-5.76-9.17
		c-2.52-3-5.22-5.4-8.09-7.2c-2.88-1.8-5.16-2.1-6.84-0.9c-2.88,2.64-6.66,6.42-11.33,11.33c-4.68,4.92-10.13,12.41-16.37,22.48
		c-1.68-1.2-4.02-2.64-7.02-4.32c-3-1.68-6.3-3.11-9.89-4.32c-3.6-1.2-7.2-1.86-10.79-1.98c-3.6-0.12-6.72,0.66-9.35,2.34
		c-5.28,3.6-10.02,7.86-14.21,12.77c-4.2,4.92-7.62,10.25-10.25,16.01c-2.64,5.76-4.38,11.82-5.22,18.17
		c-0.5,3.81-0.59,7.61-0.27,11.38c-3.82,6.7-8.33,13.52-13.58,20.46c-7.44,9.84-14.99,18.65-22.66,26.44
		c-7.68,7.8-15.05,14.09-22.13,18.89c-7.08,4.8-12.53,6.84-16.37,6.12c-2.64-0.48-4.08-2.57-4.32-6.3c-0.24-3.72,0-7.97,0.72-12.77
		c0.72-4.79,1.8-9.53,3.24-14.21c1.44-4.68,2.75-8.21,3.96-10.61c4.32,1.92,8.27,3.12,11.87,3.6c3.6,0.48,7.79,0.12,12.59-1.08
		c6.71-2.16,12.77-6.41,18.17-12.77c5.4-6.35,9.95-13.19,13.67-20.51c3.72-7.31,6.59-14.33,8.63-21.05
		c2.03-6.71,3.06-11.39,3.06-14.03c0.48-5.51-2.16-10.07-7.91-13.67c-4.08-2.39-7.73-4.61-10.97-6.66c-3.24-2.03-6.42-3.6-9.53-4.68
		c-3.12-1.08-6.12-1.56-8.99-1.44c-2.88,0.12-6,1.02-9.35,2.7c-5.52,3.12-11.39,8.04-17.63,14.75
		c-6.24,6.72-12.18,14.51-17.81,23.38c-5.64,8.88-10.74,18.35-15.29,28.42c-0.97,2.15-1.88,4.28-2.75,6.39
		c-1.44,2.31-2.91,4.61-4.44,6.92c-4.8,7.2-9.78,13.91-14.93,20.15c-5.16,6.24-10.38,11.75-15.65,16.55
		c-5.28,4.8-10.2,8.52-14.75,11.15c0-5.04,1.08-11.15,3.24-18.35c2.16-7.2,4.68-14.69,7.55-22.48c2.88-7.79,5.87-15.23,8.99-22.3
		c3.11-7.07,5.63-13.01,7.55-17.81c1.2-2.88,0.78-5.81-1.26-8.82c-2.04-3-4.86-5.58-8.45-7.73c-3.6-2.16-7.5-3.6-11.69-4.32
		c-4.2-0.72-7.73-0.24-10.61,1.44c-4.32,2.64-8.76,5.88-13.31,9.71c-4.56,3.84-9.06,8.16-13.49,12.95
		c-4.44,4.8-8.88,9.95-13.31,15.47c-4.44,5.52-8.58,11.03-12.41,16.55c0.24-1.2,1.26-3.47,3.06-6.84c1.8-3.36,3.96-7.25,6.48-11.69
		c2.52-4.44,5.15-9.23,7.91-14.39c2.75-5.16,5.33-10.25,7.73-15.29c0.72-1.92-0.06-4.19-2.34-6.84c-2.28-2.64-5.22-4.79-8.81-6.48
		c-3.6-1.68-7.26-2.52-10.97-2.52c-3.72,0-6.42,1.68-8.09,5.04c-5.76,10.07-11.03,20.99-15.83,32.74c-1.03,2.52-2.03,5.03-3.01,7.52
		c-5.02,8.67-9.9,16.6-14.62,23.78c-6,9.12-11.33,16.55-16.01,22.3c-4.68,5.76-8.58,9.66-11.69,11.69c-3.12,2.04-5.16,1.74-6.12-0.9
		c-1.44-3.6-0.12-11.45,3.96-23.56c4.08-12.11,11.75-28.96,23.02-50.55c1.2-2.64,0.6-5.15-1.8-7.55c-2.4-2.39-5.4-4.32-8.99-5.76
		c-3.6-1.44-7.26-2.16-10.97-2.16c-3.72,0-6.18,0.96-7.38,2.88c-3.84,6.24-7.55,13.73-11.15,22.48c-1.9,4.62-3.7,9.27-5.43,13.95
		c-4.12,1.17-8.36,1.93-12.73,2.24c-5.16,0.36-10.38,0.12-15.65-0.72c-5.28-0.84-10.2-2.34-14.75-4.5
		c2.64-7.2,5.99-14.51,10.07-21.95c4.08-7.43,8.63-14.63,13.67-21.59c5.04-6.95,10.37-13.43,16.01-19.43
		c5.63-5.99,11.45-11.15,17.45-15.47c2.64-2.16,3.24-5.09,1.8-8.81c-1.44-3.72-3.78-7.25-7.02-10.61
		c-3.24-3.36-6.78-5.94-10.61-7.73c-3.84-1.8-6.96-1.86-9.35-0.18c-7.44,5.28-14.99,13.19-22.66,23.74
		c-7.68,10.56-15.11,22.48-22.3,35.8c-7.2,13.31-13.98,27.34-20.33,42.09c-6.35,14.75-11.99,29.02-16.91,42.81
		c-4.91,13.8-8.99,26.39-12.23,37.78c-3.24,11.39-5.22,20.33-5.94,26.8c-0.48,3.6-0.72,7.5-0.72,11.69c0,4.19,0.54,8.15,1.62,11.87
		C442.64,489.3,444.38,492.6,446.78,495.47z M886.75,415.97c1.44,3.12,1.02,7.19-1.26,12.23c-2.28,5.04-5.4,9.95-9.35,14.75
		c-3.96,4.8-8.27,8.94-12.95,12.41c-4.68,3.48-8.7,5.34-12.05,5.58c3.11-8.87,7.97-16.85,14.57-23.92
		C872.3,429.94,879.32,422.93,886.75,415.97z M793.04,357.69c2.52-4.55,5.51-9.47,8.99-14.75c3.47-5.27,7.07-10.25,10.79-14.93
		c3.72-4.68,6.77-7.85,9.17-9.53c-0.48,4.08-1.62,8.99-3.42,14.75c-1.8,5.76-4.2,11.21-7.2,16.37c-3,5.16-6.36,9.42-10.07,12.77
		c-3.72,3.36-7.73,4.68-12.05,3.96C789.26,365.12,790.52,362.25,793.04,357.69z M474.84,455.72c1.68-8.03,3.72-15.77,6.12-23.2
		c0.72-2.16,1.67-5.04,2.88-8.63c1.2-3.6,2.46-7.38,3.78-11.33c1.32-3.96,2.64-7.67,3.96-11.15c1.32-3.47,2.46-6.05,3.42-7.73
		c1.68,2.64,2.82,5.34,3.42,8.09c0.6,2.76,0.9,5.46,0.9,8.09c0.24,5.04-0.42,10.79-1.98,17.27c-1.56,6.48-3.6,12.95-6.12,19.43
		c-2.52,6.48-5.34,12.65-8.45,18.53c-3.12,5.88-6.23,10.61-9.35,14.21C472.68,471.61,473.16,463.76,474.84,455.72z"/>
	<path class="st0" d="M578.99,308.76c2.04,1.68,4.44,2.94,7.2,3.78c2.75,0.84,5.51,1.14,8.27,0.9c2.75-0.24,4.86-1.32,6.3-3.24
		c1.2-2.16,2.64-4.68,4.32-7.55c1.68-2.88,3.36-5.81,5.04-8.81c1.68-3,3.29-5.87,4.86-8.63c1.56-2.75,2.7-4.86,3.42-6.3
		c1.44-2.39,0.96-4.8-1.44-7.2c-2.4-2.39-5.46-4.32-9.17-5.76c-3.72-1.44-7.5-2.1-11.33-1.98c-3.84,0.12-6.48,1.26-7.91,3.42
		c-0.72,1.44-1.68,3.48-2.88,6.12c-1.2,2.64-2.4,5.58-3.6,8.81c-1.2,3.24-2.34,6.72-3.42,10.43c-1.08,3.72-1.86,7.26-2.34,10.61
		C576.05,305.29,576.95,307.08,578.99,308.76z"/>
	<path class="st0" d="M279.54,576.02c4.89-18.39,8.93-35.39,12.11-51c0.53-3.18-0.93-6.15-4.37-8.93c-3.44-2.78-7.54-4.89-12.3-6.35
		c-4.76-1.45-9.66-2.05-14.69-1.79c-5.03,0.27-8.73,1.98-11.11,5.16c-1.06,1.59-3.05,4.17-5.95,7.74
		c-2.91,3.57-5.82,7.21-8.73,10.91c-7.14-6.35-15.88-11.04-26.2-14.09c-10.32-3.04-21.04-3.63-32.15-1.79
		c-15.35,2.65-30.76,10.32-46.24,23.02c-15.48,12.7-29.84,27.85-43.07,45.45c-13.23,17.6-24.74,36.19-34.53,55.77
		c-9.79,19.59-16.67,37.58-20.64,53.98c-0.79,3.97,0.33,8.67,3.37,14.09c3.04,5.43,7.21,10.46,12.5,15.08
		c5.29,4.63,11.37,8.27,18.26,10.92c6.88,2.65,13.49,3.18,19.85,1.59c4.23-0.79,10.12-4.3,17.66-10.52
		c7.54-6.21,15.88-13.89,25.01-23.02c9.13-9.13,18.79-19.25,28.98-30.36c10.18-11.11,19.98-22.16,29.37-33.14
		c9.39-10.98,18.12-21.37,26.2-31.16c8.07-9.79,14.62-17.86,19.65-24.21c-7.41,29.64-17.2,57.95-29.37,84.94
		c-12.17,26.99-25.4,50.87-39.69,71.64c-14.29,20.78-28.91,37.51-43.86,50.21c-14.95,12.7-29.04,19.58-42.27,20.64
		c-5.3,0.53-10.19-0.66-14.69-3.57c-4.5-2.91-8.6-6.95-12.3-12.11c-3.71-5.16-6.88-11.24-9.53-18.26
		c-2.65-7.01-4.76-14.49-6.35-22.43c-8.47,14.29-11.11,28.05-7.94,41.28c2.38,9.27,7.47,17.2,15.28,23.82
		c7.8,6.61,17.27,11.24,28.38,13.89c11.11,2.64,23.35,2.98,36.71,0.99c13.36-1.98,26.79-6.95,40.29-14.88
		c12.7-7.68,24.67-18.12,35.92-31.36c11.24-13.23,21.63-28.18,31.16-44.85c9.53-16.67,18.39-34.53,26.59-53.58
		c8.2-19.05,15.48-38.17,21.83-57.35C269.02,613.2,274.64,594.42,279.54,576.02z M217.23,549.03c-0.4,1.72-0.86,2.98-1.39,3.77
		c-2.65,4.24-6.95,10.19-12.9,17.86c-5.95,7.68-12.97,16.27-21.04,25.8c-8.08,9.53-16.87,19.65-26.4,30.36
		c-9.53,10.72-19.19,21.17-28.97,31.36c-9.79,10.19-19.39,19.78-28.78,28.78c-9.4,9-17.93,16.54-25.6,22.62
		c-0.27-4.76,0.99-11.31,3.77-19.65c2.78-8.34,6.68-17.72,11.71-28.18c5.02-10.45,10.92-21.43,17.66-32.94s13.95-22.69,21.63-33.54
		c7.67-10.85,15.61-20.9,23.81-30.17c8.2-9.26,16.14-16.93,23.81-23.02c7.67-6.08,14.88-10.05,21.63-11.91
		c6.75-1.85,12.63-0.66,17.66,3.57c1.32,1.06,2.31,2.45,2.98,4.17c0.66,1.72,0.99,3.57,0.99,5.56
		C217.82,545.46,217.62,547.31,217.23,549.03z"/>
	<path class="st0" d="M712.76,672.67c8.99-24.34,19.98-47.76,32.94-70.25c13.23-22.23,26.85-39.69,40.88-52.39
		c1.85-1.85,2.64-3.44,2.38-4.76c-0.53-4.23-4.37-8.46-11.51-12.7l-2.38-1.19c-3.71-2.91-7.08-4.89-10.12-5.95
		c-3.05-1.05-5.62-1.59-7.74-1.59c-1.85,0-3.84,0.66-5.95,1.98c-6.88,6.35-14.23,15.28-22.03,26.79
		c-7.81,11.51-15.94,25.6-24.41,42.27c-8.47,16.94-16.14,33.81-23.02,50.61c-3.47,8.48-6.71,16.95-9.71,25.39
		c-1.52-0.02-2.65,0.58-3.38,1.8c-2.65,5.56-6.02,12.37-10.12,20.44c-4.11,8.07-8.6,16.07-13.5,24.01
		c-4.9,7.94-9.99,15.35-15.28,22.23c-5.3,6.88-10.45,11.91-15.48,15.08c-0.79-5.02-0.27-12.43,1.59-22.23
		c1.85-9.79,4.3-20.17,7.34-31.16c3.04-10.98,6.41-21.56,10.12-31.75c3.7-10.18,7.01-18.46,9.92-24.81
		c1.06-2.38,0.33-5.09-2.18-8.14c-2.52-3.04-5.76-5.49-9.72-7.34c-3.97-1.85-8.01-2.78-12.11-2.78c-4.1,0-6.95,1.72-8.53,5.16
		c-4.24,9.27-8.8,18.65-13.69,28.18c-4.9,9.53-9.92,18.85-15.08,27.98c-5.16,9.13-10.12,17.8-14.88,26
		c-4.76,8.2-9.2,15.42-13.3,21.63c-4.11,6.22-7.68,11.18-10.72,14.88c-3.04,3.71-5.23,5.69-6.55,5.95
		c0.26-4.5,1.85-11.44,4.76-20.84c2.91-9.39,6.21-19.18,9.92-29.37c3.7-10.18,7.4-19.71,11.11-28.58c3.7-8.86,6.61-15.15,8.73-18.85
		c1.05-1.85,0.6-3.9-1.39-6.15c-1.98-2.25-4.63-4.17-7.94-5.76c-3.31-1.59-6.82-2.58-10.52-2.98c-3.71-0.4-6.49,0.33-8.34,2.18
		c-1.85,1.59-4.11,4.96-6.75,10.12c-1.24,2.42-2.53,5.11-3.86,8.05c-0.04,0.03-0.08,0.05-0.11,0.09
		c-5.03,10.32-11.65,20.91-19.85,31.75c-8.21,10.85-16.54,20.58-25.01,29.17c-8.47,8.6-16.61,15.55-24.41,20.84
		c-7.81,5.3-13.83,7.54-18.06,6.75c-2.91-0.53-4.5-2.84-4.76-6.95c-0.27-4.1,0-8.79,0.79-14.09c0.79-5.29,1.98-10.52,3.57-15.68
		c1.59-5.16,3.04-9.06,4.37-11.71c4.76,2.12,9.13,3.44,13.1,3.97c3.97,0.53,8.6,0.14,13.89-1.19c7.4-2.38,14.09-7.08,20.04-14.09
		c5.95-7.01,10.98-14.55,15.08-22.62c4.1-8.07,7.27-15.81,9.53-23.22c2.25-7.41,3.37-12.56,3.37-15.48
		c0.53-6.08-2.38-11.11-8.73-15.08c-4.5-2.64-8.53-5.09-12.11-7.34c-3.57-2.25-7.08-3.97-10.52-5.16c-3.44-1.19-6.75-1.72-9.92-1.59
		c-3.18,0.14-6.62,1.13-10.32,2.98c-6.09,3.44-12.57,8.87-19.45,16.27c-6.88,7.41-13.43,16.01-19.65,25.8
		c-6.22,9.79-11.85,20.24-16.87,31.36c-1.44,3.18-2.76,6.32-3.99,9.43c-0.82,1.63-1.67,3.31-2.56,5.06
		c-4.11,8.07-8.6,16.07-13.5,24.01c-4.9,7.94-9.99,15.35-15.28,22.23c-5.3,6.88-10.46,11.91-15.48,15.08
		c-0.79-5.02-0.27-12.43,1.59-22.23c1.85-9.79,4.3-20.17,7.34-31.16c3.04-10.98,6.41-21.56,10.12-31.75
		c3.7-10.18,7.01-18.46,9.92-24.81c1.05-2.38,0.33-5.09-2.18-8.14c-2.52-3.04-5.76-5.49-9.72-7.34c-3.97-1.85-8.01-2.78-12.11-2.78
		c-4.11,0-6.95,1.72-8.53,5.16c-4.24,9.27-8.8,18.65-13.69,28.18c-4.9,9.53-9.92,18.85-15.08,27.98c-5.16,9.13-10.12,17.8-14.88,26
		c-4.76,8.2-9.2,15.42-13.3,21.63c-4.11,6.22-7.68,11.18-10.72,14.88c-3.05,3.71-5.23,5.69-6.55,5.95
		c0.26-4.5,1.85-11.44,4.76-20.84c2.91-9.39,6.21-19.18,9.92-29.37c3.7-10.18,7.4-19.71,11.11-28.58c3.7-8.86,6.61-15.15,8.73-18.85
		c1.05-1.85,0.6-3.9-1.39-6.15c-1.98-2.25-4.63-4.17-7.94-5.76c-3.31-1.59-6.82-2.58-10.52-2.98c-3.71-0.4-6.49,0.33-8.34,2.18
		c-1.85,1.59-4.11,4.96-6.75,10.12c-2.65,5.16-5.49,11.51-8.53,19.05c-3.04,7.54-6.08,15.68-9.13,24.41
		c-3.04,8.73-5.69,17.4-7.94,26c-2.24,8.6-4.03,16.61-5.36,24.01c-1.32,7.41-1.85,13.5-1.59,18.26c0.27,4.24,2.38,7.94,6.35,11.11
		c3.97,3.18,8.53,5.49,13.69,6.95c5.16,1.46,10.38,1.92,15.68,1.39c5.29-0.53,9.39-2.38,12.3-5.56c8.2-8.46,14.42-15.74,18.65-21.83
		c4.23-6.08,8.73-12.7,13.5-19.85c-1.06,10.06,0.6,17.73,4.96,23.02c4.37,5.3,10.78,9.92,19.25,13.89
		c4.76,2.12,9.66,1.66,14.69-1.39c5.02-3.04,10.05-7.47,15.08-13.3c4.66-5.39,9.15-11.66,13.47-18.76
		c1.01,7.17,3.65,13.03,7.96,17.57c2.38,2.38,5.43,4.9,9.13,7.54c3.7,2.65,7.8,4.96,12.3,6.95c4.5,1.98,8.99,3.24,13.49,3.77
		c4.5,0.53,8.73-0.26,12.7-2.38c8.47-4.76,17.07-10.85,25.8-18.26c8.57-7.27,16.76-15.31,24.57-24.12
		c-1.23,5.23-2.28,10.25-3.13,14.99c-1.32,7.41-1.85,13.5-1.59,18.26c0.27,4.24,2.38,7.94,6.35,11.11s8.53,5.49,13.69,6.95
		c5.16,1.46,10.38,1.92,15.68,1.39c5.29-0.53,9.39-2.38,12.3-5.56c8.2-8.46,14.42-15.74,18.66-21.83
		c4.23-6.08,8.73-12.7,13.49-19.85c-1.06,10.06,0.6,17.73,4.96,23.02c4.37,5.3,10.78,9.92,19.25,13.89
		c4.76,2.12,9.65,1.66,14.69-1.39c5.02-3.04,10.05-7.47,15.08-13.3c5.02-5.82,9.85-12.63,14.49-20.44c0.11-0.18,0.21-0.37,0.32-0.55
		c-2.19,13.05-3.03,24.42-2.51,34.09c0,1.59,0.07,3.18,0.2,4.76c0.14,1.59,0.33,3.05,0.6,4.37c3.44,13.76,9.27,23.82,17.46,30.17
		c8.2,6.61,14.82,9.92,19.85,9.92c2.64,0.26,4.83,0.46,6.55,0.6c1.72,0.13,3.11,0.06,4.17-0.2c5.02,0,9.39-1.59,13.1-4.76
		c-11.65-0.27-18.52-4.9-20.64-13.89c-0.79-4.5-1.39-8.4-1.79-11.71c-0.4-3.31-0.73-6.02-0.99-8.14
		c-0.53-12.43,0.79-26.72,3.97-42.87C696.49,720.57,703.23,697.02,712.76,672.67z M460.53,677.83c2.78-5.02,6.08-10.45,9.92-16.27
		c3.83-5.82,7.8-11.31,11.91-16.47c4.1-5.16,7.47-8.66,10.12-10.52c-0.53,4.5-1.79,9.92-3.77,16.27
		c-1.98,6.35-4.63,12.37-7.94,18.06c-3.31,5.69-7.01,10.39-11.11,14.09c-4.11,3.71-8.53,5.16-13.3,4.37
		C456.36,686.03,457.75,682.86,460.53,677.83z"/>
	<path class="st0" d="M977.89,664.73c-4.76-2.38-9-3.31-12.7-2.78c-5.03,0.79-10.92,2.91-17.66,6.35
		c-6.75,3.44-13.56,7.48-20.44,12.11c-6.88,4.63-13.69,9.33-20.44,14.09c-6.75,4.76-12.64,8.73-17.66,11.91
		c-5.03-5.82-7.81-13.03-8.34-21.63c-0.53-8.6,0.26-16.87,2.38-24.81c2.11-7.94,5.36-14.75,9.72-20.44
		c4.37-5.69,9.06-8.4,14.09-8.14c-0.53,1.33-1.33,3.18-2.38,5.56c-1.06,2.38-1.98,4.9-2.78,7.54c-0.79,2.65-1.46,5.36-1.98,8.14
		c-0.53,2.78-0.53,5.23,0,7.34c0.79,2.91,2.12,5.63,3.97,8.14c1.85,2.52,3.9,4.56,6.15,6.15c2.25,1.59,4.5,2.78,6.75,3.57
		c2.25,0.79,4.03,0.93,5.36,0.4c-1.85-4.23-1.39-9.72,1.39-16.47c2.78-6.75,6.68-13.69,11.71-20.84
		c5.02-7.14,10.45-13.89,16.27-20.24c5.82-6.35,10.85-10.98,15.08-13.89c1.85-1.32,2.05-3.7,0.6-7.14
		c-1.46-3.44-3.57-6.81-6.35-10.12c-2.78-3.31-5.76-5.95-8.93-7.94c-3.18-1.98-5.69-2.31-7.54-0.99c-3.18,2.91-7.34,7.08-12.5,12.5
		c-5.16,5.43-11.18,13.69-18.06,24.81c-1.85-1.32-4.43-2.91-7.74-4.76c-3.31-1.85-6.95-3.44-10.92-4.76
		c-3.97-1.32-7.94-2.05-11.91-2.18c-3.97-0.13-7.41,0.73-10.32,2.58c-5.82,3.97-11.05,8.67-15.68,14.09
		c-4.63,5.43-8.4,11.31-11.31,17.66c-2.91,6.35-4.83,13.04-5.76,20.04c-0.55,4.21-0.65,8.39-0.3,12.55
		c-4.21,7.39-9.19,14.92-14.98,22.57c-8.21,10.85-16.54,20.58-25.01,29.17c-8.47,8.6-16.61,15.55-24.41,20.84
		c-7.81,5.3-13.83,7.54-18.06,6.75c-2.91-0.53-4.5-2.84-4.76-6.95c-0.27-4.1,0-8.79,0.79-14.09c0.79-5.29,1.98-10.52,3.57-15.68
		c1.59-5.16,3.04-9.06,4.37-11.71c4.76,2.12,9.13,3.44,13.1,3.97c3.97,0.53,8.6,0.14,13.89-1.19c7.41-2.38,14.09-7.08,20.04-14.09
		c5.95-7.01,10.98-14.55,15.08-22.62c4.1-8.07,7.27-15.81,9.53-23.22c2.25-7.41,3.37-12.56,3.37-15.48
		c0.53-6.08-2.38-11.11-8.73-15.08c-4.5-2.64-8.53-5.09-12.11-7.34c-3.57-2.25-7.08-3.97-10.52-5.16c-3.44-1.19-6.75-1.72-9.92-1.59
		c-3.18,0.14-6.62,1.13-10.32,2.98c-6.09,3.44-12.57,8.87-19.45,16.27c-6.88,7.41-13.43,16.01-19.65,25.8
		c-6.22,9.79-11.85,20.24-16.87,31.36c-5.02,11.11-8.79,21.83-11.31,32.15c-2.51,10.32-3.5,19.91-2.98,28.78
		c0.53,8.87,3.31,15.94,8.34,21.23c2.38,2.38,5.43,4.9,9.13,7.54c3.7,2.65,7.8,4.96,12.3,6.95c4.5,1.98,8.99,3.24,13.5,3.77
		c4.5,0.53,8.73-0.26,12.7-2.38c8.46-4.76,17.07-10.85,25.8-18.26c8.73-7.41,17.07-15.61,25.01-24.61
		c7.94-8.99,15.01-18.59,21.23-28.78c1.72-2.81,3.32-5.63,4.82-8.45c1.18,1.95,2.47,3.85,3.91,5.68
		c4.89,6.22,9.72,12.77,14.49,19.65c-10.06,7.68-19.91,15.88-29.57,24.61c-9.66,8.73-17.53,18.13-23.62,28.18
		c-3.97,6.62-5.88,12.44-5.76,17.46c0.14,5.03,1.59,9.33,4.37,12.9c2.78,3.57,6.62,6.28,11.51,8.14c4.9,1.85,10.19,2.98,15.88,3.37
		c5.69,0.4,11.51,0,17.46-1.19c5.95-1.19,11.31-3.11,16.08-5.76c7.14-3.97,13.89-8.86,20.24-14.69
		c6.35-5.82,11.44-12.11,15.28-18.85c3.83-6.75,6.02-13.69,6.55-20.84c0.53-7.14-1.19-14.29-5.16-21.43
		c-1.33-2.12-2.65-4.1-3.97-5.95c-1.33-1.85-2.65-3.83-3.97-5.95c2.11-2.38,6.68-6.15,13.69-11.31
		c7.01-5.16,14.62-10.45,22.82-15.88c8.2-5.42,16.14-10.32,23.82-14.69c7.67-4.37,13.49-6.95,17.46-7.74c1.59-0.26,2.84-0.26,3.77,0
		c0.92,0.27,1.65,0.46,2.18,0.6c0.53,0.14,0.99,0.14,1.39,0c0.4-0.13,1.12-0.73,2.18-1.79
		C986.09,669.23,982.65,667.11,977.89,664.73z M772.89,677.83c2.78-5.02,6.08-10.45,9.92-16.27c3.83-5.82,7.8-11.31,11.91-16.47
		c4.1-5.16,7.47-8.66,10.12-10.52c-0.53,4.5-1.79,9.92-3.77,16.27c-1.98,6.35-4.63,12.37-7.94,18.06
		c-3.31,5.69-7.01,10.39-11.11,14.09c-4.11,3.71-8.53,5.16-13.3,4.37C768.72,686.03,770.11,682.86,772.89,677.83z M874.89,755.62
		c-2.52,5.56-5.95,10.98-10.32,16.27c-4.37,5.3-9.13,9.86-14.29,13.69c-5.16,3.84-9.59,5.89-13.3,6.15
		c3.44-9.79,8.79-18.59,16.08-26.39c7.27-7.8,15.01-15.54,23.22-23.22C877.87,745.57,877.4,750.07,874.89,755.62z"/>
</g>
</svg>
