<svg width="189" height="189" viewBox="0 0 189 189" fill="none" xmlns="http://www.w3.org/2000/svg">
<path d="M9.85642 70.5064C10.7202 70.6879 11.7086 70.8126 12.8237 70.8807C13.9369 70.9487 15.018 70.9733 16.0651 70.9487C17.1102 70.926 18.0534 70.892 18.8963 70.8466C19.7373 70.8013 20.2949 70.7332 20.5671 70.6425C20.0662 72.4626 19.5994 74.2694 19.1685 76.0668C18.7356 77.8642 18.4521 79.4669 18.3161 80.8769C16.2692 81.4231 14.1656 82.1167 12.0054 82.9578C9.84508 83.8007 7.67347 84.7438 5.49052 85.789C4.98967 86.1537 4.85359 86.7207 5.08039 87.4938C5.30719 88.2668 5.69464 89.0284 6.24085 89.7788C6.78706 90.5291 7.41076 91.1433 8.11762 91.6215C8.82259 92.0997 9.40282 92.1772 9.85642 91.8597C12.5856 90.1303 15.3488 88.7223 18.146 87.6298C20.9432 86.5393 23.627 85.7531 26.1955 85.2768C28.764 84.7986 31.187 84.6285 33.4606 84.7646C35.7343 84.9007 37.7018 85.3108 39.3612 85.9931C41.0206 86.6754 42.3398 87.6072 43.3189 88.7903C44.296 89.9715 44.7855 91.4042 44.7855 93.0882C45.6492 92.4966 46.0367 91.5629 45.946 90.291C45.8534 89.0171 45.4451 87.6884 44.7175 86.2993C43.9898 84.912 43.0221 83.6155 41.8182 82.4115C40.6124 81.2076 39.3272 80.376 37.9645 79.9224C34.7345 78.83 30.6653 78.6032 25.7532 79.2401C25.98 77.7848 26.2994 76.2275 26.7077 74.5662C27.1178 72.9067 27.6848 71.0753 28.4124 69.0738C32.8237 67.0269 36.8135 64.4584 40.3856 61.3645C43.9558 58.2725 47.2425 54.3828 50.2438 49.6994C50.6974 48.9718 51.2096 48.0854 51.7785 47.0383C52.3474 45.9931 52.8577 44.878 53.3132 43.6949C53.7668 42.5136 54.1316 41.3078 54.4056 40.0793C54.6778 38.8508 54.7912 37.6923 54.7458 36.5998C54.7004 35.5093 54.4264 34.5435 53.9274 33.7006C53.4266 32.8595 52.6309 32.2113 51.5404 31.7558C49.5389 30.9828 47.6167 30.858 45.7759 31.3815C43.9331 31.9051 42.2283 32.7688 40.6596 33.9746C39.0909 35.1804 37.6583 36.5904 36.3618 38.2044C35.0652 39.8185 33.9615 41.3551 33.0524 42.8104C30.5973 46.5393 28.5599 50.2022 26.9458 53.7932C25.3317 57.3861 23.8651 61.0243 22.5459 64.7079C21.8182 64.9366 20.8751 65.084 19.7147 65.1521C18.5542 65.2201 17.2936 65.2088 15.929 65.118C14.5644 65.0273 13.1998 64.8345 11.8353 64.5378C10.4707 64.243 9.24217 63.8669 8.15164 63.4114C7.05922 62.9578 6.17281 62.3889 5.49052 61.7066C4.80823 61.0243 4.48882 60.2286 4.53607 59.3195C4.03522 59.501 3.68368 60.1152 3.47956 61.1604C3.27544 62.2074 3.34348 63.3547 3.68368 64.6059C4.02388 65.857 4.68349 67.0515 5.66251 68.1874C6.63775 69.3252 8.03635 70.0982 9.85642 70.5064ZM32.7783 57.2386C33.6874 55.4431 34.6778 53.6231 35.7456 51.7803C36.8135 49.9376 37.9286 48.1307 39.089 46.356C40.2495 44.5832 41.4194 42.9446 42.6026 41.4439C44.5133 39.0342 46.082 37.3407 47.3105 36.3617C48.539 35.3846 49.3914 35.0311 49.8696 35.3033C50.3478 35.5755 50.4498 36.4184 50.1758 37.8283C49.9036 39.2383 49.2213 41.1264 48.1289 43.4908C47.3105 45.3108 46.2521 47.1744 44.9575 49.0852C43.661 50.996 42.2283 52.8141 40.6596 54.5435C39.0909 56.2728 37.4296 57.8189 35.6795 59.1835C33.9275 60.548 32.2113 61.5705 30.5292 62.2528C31.117 60.7068 31.8674 59.036 32.7783 57.2386Z" fill="white"/>
<path d="M51.0111 61.8577C50.0529 62.8896 49.1419 64.086 48.2763 65.4487C47.4107 66.8113 46.6282 68.2666 45.9289 69.8127C45.2296 71.3587 44.7042 72.8518 44.3545 74.2882C44.0049 75.7246 43.8669 77.0608 43.9406 78.2931C44.0143 79.5273 44.4018 80.512 45.1011 81.2491C45.4318 81.5798 45.8571 81.9314 46.3712 82.298C46.8871 82.6666 47.4579 82.9879 48.0835 83.2657C48.7091 83.5416 49.3347 83.7174 49.9622 83.7911C50.5878 83.8648 51.1774 83.7552 51.7293 83.4604C52.9068 82.797 54.1051 81.9503 55.3203 80.9183C56.5356 79.8883 57.6961 78.7467 58.8017 77.4936C59.9074 76.2424 60.892 74.9062 61.7577 73.4887C61.9958 73.0975 62.2188 72.7044 62.4286 72.3112C62.593 72.5834 62.7726 72.8461 62.9729 73.1013C63.6533 73.9669 64.3262 74.8779 64.9896 75.8361C63.5891 76.9039 62.2169 78.0455 60.8731 79.2608C59.5294 80.476 58.4332 81.7839 57.5864 83.1825C57.0346 84.103 56.7681 84.9138 56.7851 85.6131C56.804 86.3124 57.0062 86.9115 57.3937 87.4086C57.7811 87.9056 58.3141 88.2836 58.9964 88.5407C59.6787 88.7977 60.4139 88.9546 61.2058 89.0094C61.9977 89.0642 62.8085 89.0094 63.6363 88.8431C64.4641 88.6768 65.2107 88.4103 65.8741 88.0417C66.8682 87.4898 67.8076 86.8076 68.6921 85.9967C69.5766 85.1878 70.2853 84.3128 70.8183 83.3734C71.3513 82.4341 71.6556 81.4683 71.7293 80.4723C71.803 79.4781 71.563 78.484 71.0111 77.4898C70.8259 77.195 70.6426 76.9191 70.4592 76.662C70.274 76.405 70.0907 76.129 69.9073 75.8342C70.2022 75.5035 70.8372 74.978 71.8125 74.2598C72.7877 73.5416 73.8461 72.8045 74.9895 72.0504C76.1311 71.2963 77.2349 70.614 78.3046 70.0054C79.3725 69.3969 80.1833 69.0378 80.7352 68.9281C80.9563 68.8922 81.1302 68.8922 81.2606 68.9281C81.3891 68.9659 81.4893 68.9924 81.5649 69.0113C81.6386 69.0302 81.7028 69.0302 81.7576 69.0113C81.8125 68.9924 81.9145 68.9111 82.0619 68.7618C81.7671 68.5048 81.2889 68.2099 80.6255 67.8773C79.9621 67.5466 79.3725 67.4161 78.8584 67.4899C78.1591 67.5995 77.3388 67.8962 76.3995 68.3744C75.4602 68.8544 74.5114 69.4158 73.555 70.0584C72.5968 70.7029 71.6499 71.3568 70.7106 72.0202C69.7713 72.6836 68.951 73.2355 68.2517 73.6777C67.5524 72.8688 67.165 71.8633 67.0912 70.6669C67.0175 69.4706 67.1272 68.3196 67.422 67.2139C67.7168 66.1083 68.1685 65.1614 68.7752 64.3695C69.3838 63.5776 70.0359 63.2014 70.7371 63.2374C70.6633 63.4226 70.5518 63.6796 70.4063 64.0104C70.2589 64.3411 70.1304 64.6927 70.0189 65.0593C69.9092 65.4279 69.8166 65.8059 69.7429 66.1914C69.6692 66.5789 69.6692 66.9191 69.7429 67.2139C69.8525 67.6203 70.0378 67.9964 70.2948 68.346C70.5518 68.6957 70.8372 68.9811 71.151 69.2022C71.4628 69.4233 71.7766 69.5896 72.0903 69.6993C72.4021 69.8089 72.6516 69.8297 72.8368 69.7541C72.5779 69.1663 72.6441 68.4008 73.0296 67.4615C73.4171 66.5222 73.9595 65.5564 74.6588 64.5604C75.3581 63.5662 76.1141 62.6269 76.923 61.7424C77.7319 60.8578 78.4331 60.2152 79.0228 59.8089C79.2799 59.6256 79.3082 59.2929 79.106 58.8148C78.9037 58.3366 78.6089 57.8679 78.2215 57.4067C77.834 56.9474 77.4201 56.5789 76.9778 56.3011C76.5356 56.0251 76.1859 55.9798 75.9289 56.1631C75.4866 56.5694 74.9064 57.1478 74.1882 57.9038C73.47 58.6598 72.6327 59.8108 71.6745 61.3568C71.4156 61.1735 71.0565 60.9523 70.5972 60.6934C70.136 60.4364 69.6295 60.2152 69.0776 60.03C68.5258 59.8467 67.972 59.7446 67.4201 59.7257C66.8682 59.7068 66.3882 59.8278 65.9837 60.0848C65.1729 60.6367 64.4452 61.2907 63.8008 62.0467C63.1563 62.8027 62.6308 63.621 62.2264 64.5055C61.82 65.3901 61.5535 66.3199 61.425 67.2952C61.3475 67.8811 61.3343 68.4632 61.3834 69.0415C60.7975 70.0716 60.1039 71.1187 59.2988 72.1846C58.1572 73.6947 56.9968 75.048 55.8174 76.2443C54.638 77.4407 53.5059 78.4084 52.4192 79.1455C51.3324 79.8826 50.4952 80.1944 49.9055 80.0848C49.4991 80.0111 49.278 79.6898 49.2421 79.1171C49.2043 78.5464 49.2421 77.8924 49.3517 77.1553C49.4613 76.4182 49.6276 75.6906 49.8488 74.9724C50.0699 74.2542 50.2721 73.7117 50.4574 73.3432C51.1207 73.638 51.7274 73.8232 52.2812 73.8951C52.8331 73.9688 53.4776 73.914 54.2147 73.7287C55.2447 73.398 56.1765 72.7441 57.0043 71.7669C57.8321 70.7917 58.5314 69.7408 59.1041 68.6182C59.6749 67.4955 60.1171 66.4182 60.4309 65.3863C60.7427 64.3562 60.8996 63.638 60.8996 63.2317C60.9733 62.385 60.5689 61.6857 59.6843 61.1319C59.0569 60.7633 58.4974 60.4231 57.9985 60.1094C57.5014 59.7976 57.0119 59.5575 56.5337 59.3912C56.0555 59.2249 55.5944 59.1512 55.1521 59.1701C54.7099 59.189 54.2317 59.3269 53.7157 59.584C52.8709 60.0716 51.9694 60.8257 51.0111 61.8577ZM66.4789 78.6522C66.7 79.1323 66.6358 79.7578 66.2861 80.5309C65.9365 81.3039 65.4583 82.0599 64.8497 82.7951C64.2411 83.5322 63.5796 84.1672 62.8614 84.7021C62.1432 85.237 61.5252 85.5224 61.0111 85.5583C61.4893 84.1956 62.2358 82.9708 63.2489 81.8841C64.26 80.7973 65.3373 79.72 66.4789 78.6522ZM56.5356 63.6796C56.4619 64.3071 56.2861 65.0612 56.0102 65.9438C55.7342 66.8284 55.3657 67.6656 54.9045 68.4575C54.4434 69.2494 53.9274 69.9034 53.3585 70.4194C52.7877 70.9353 52.1716 71.1376 51.5082 71.026C51.5082 70.8427 51.701 70.4005 52.0884 69.7012C52.4759 69.0019 52.9351 68.2459 53.47 67.4369C54.003 66.628 54.5568 65.8626 55.1275 65.1444C55.6983 64.4262 56.167 63.9385 56.5356 63.6796Z" fill="white"/>
<path d="M84.4417 93.6438C84.8953 94.1882 85.5757 94.5491 86.4811 94.7325C88.0233 95.0954 89.4049 95.1974 90.6296 95.0387C91.8543 94.8799 92.9184 94.1201 93.8256 92.7612C94.3246 92.0354 94.867 91.1169 95.4567 90.0075C96.0445 88.8981 96.5888 87.696 97.0877 86.4032C97.5867 85.1105 98.0063 83.7743 98.3465 82.3908C98.6867 81.0092 98.8662 79.6824 98.8908 78.4123C98.9135 77.1441 98.7434 75.9761 98.3805 74.9102C98.0176 73.8461 97.3826 72.9729 96.4773 72.2925C98.5166 72.6554 100.545 72.6781 102.563 72.3605C102.724 72.336 102.881 72.302 103.037 72.2717C102.69 73.4208 102.393 74.5303 102.155 75.5906C101.815 77.1101 101.622 78.3216 101.576 79.2288C101.531 79.9546 101.735 80.601 102.189 81.1661C102.642 81.7331 103.209 82.1867 103.888 82.525C104.568 82.8652 105.292 83.0806 106.063 83.1713C106.834 83.2621 107.513 83.194 108.103 82.9672C109.055 82.559 110.131 81.6745 111.333 80.3156C112.006 79.5539 112.667 78.7412 113.319 77.8794C113.302 77.9323 113.287 77.9852 113.27 78.0381C112.726 79.8298 112.317 81.2681 112.045 82.3549C111.909 82.7631 112.102 83.1713 112.624 83.5796C113.145 83.9878 113.746 84.3054 114.425 84.5322C115.105 84.7589 115.786 84.861 116.464 84.8383C117.144 84.8157 117.596 84.6002 117.825 84.1919C118.324 83.1506 119.036 81.8351 119.966 80.2475C120.894 78.6618 121.915 77.0515 123.026 75.4205C124.136 73.7894 125.258 72.249 126.392 70.7975C127.524 69.3479 128.545 68.2366 129.452 67.4654C129.316 67.783 129.078 68.4747 128.738 69.5388C128.397 70.6047 128.057 71.7936 127.717 73.109C127.377 74.4244 127.116 75.738 126.935 77.0534C126.753 78.3689 126.753 79.4102 126.935 80.1814C127.025 80.635 127.366 81.0886 127.955 81.5422C128.543 81.9958 129.223 82.3587 129.995 82.6308C130.766 82.903 131.558 83.0731 132.374 83.1411C133.191 83.2091 133.914 83.0844 134.549 82.7669C135.502 82.2679 136.532 81.4307 137.643 80.2513C138.384 79.4651 139.114 78.6127 139.834 77.696C139.838 77.8586 139.843 78.0192 139.853 78.178C139.943 79.6975 140.42 80.909 141.28 81.8162C141.688 82.2245 142.21 82.6554 142.843 83.109C143.478 83.5626 144.179 83.9595 144.95 84.2997C145.721 84.6399 146.49 84.8553 147.262 84.9461C148.033 85.0368 148.757 84.9007 149.437 84.5378C150.887 83.7213 152.361 82.6799 153.858 81.4099C155.353 80.1417 156.781 78.7355 158.14 77.1952C159.501 75.6548 160.713 74.0105 161.779 72.266C162.073 71.7841 162.348 71.3022 162.605 70.8183C162.807 71.1528 163.028 71.4779 163.274 71.7898C164.113 72.8557 164.939 73.9765 165.755 75.1559C164.032 76.4713 162.344 77.8756 160.69 79.3706C159.036 80.8656 157.687 82.4758 156.644 84.1976C155.963 85.3316 155.636 86.3295 155.657 87.1895C155.68 88.0513 155.929 88.7865 156.405 89.3989C156.882 90.0113 157.539 90.4743 158.377 90.7937C159.216 91.1094 160.123 91.304 161.096 91.3721C162.07 91.4401 163.068 91.3721 164.088 91.1679C165.109 90.9638 166.025 90.635 166.842 90.1814C168.067 89.501 169.221 88.6637 170.31 87.6658C171.399 86.6697 172.27 85.5924 172.928 84.4358C173.584 83.2791 173.958 82.0903 174.05 80.8655C174.141 79.6408 173.846 78.418 173.166 77.1933C172.939 76.8304 172.712 76.4902 172.485 76.1727C172.259 75.857 172.032 75.5169 171.805 75.1521C172.168 74.7438 172.949 74.0975 174.151 73.2148C175.351 72.3303 176.655 71.425 178.061 70.4951C179.465 69.5671 180.826 68.728 182.142 67.9795C183.455 67.2311 184.453 66.7888 185.133 66.6528C185.406 66.6074 185.619 66.6074 185.78 66.6528C185.939 66.6981 186.063 66.7321 186.154 66.7548C186.245 66.7775 186.324 66.7775 186.392 66.7548C186.46 66.7321 186.585 66.6301 186.766 66.4486C186.403 66.1311 185.814 65.7682 184.999 65.36C184.183 64.9518 183.457 64.793 182.824 64.8837C181.962 65.0198 180.955 65.3827 179.798 65.9724C178.641 66.562 177.475 67.2538 176.296 68.0457C175.116 68.8395 173.95 69.6427 172.794 70.4592C171.637 71.2757 170.628 71.9542 169.768 72.4985C168.906 71.5025 168.43 70.2664 168.341 68.7922C168.25 67.3199 168.386 65.9024 168.749 64.5435C169.112 63.1827 169.667 62.0166 170.414 61.0413C171.162 60.0661 171.966 59.6031 172.828 59.6465C172.737 59.8733 172.601 60.1908 172.419 60.5991C172.238 61.0073 172.079 61.4382 171.943 61.8918C171.807 62.3454 171.694 62.8104 171.603 63.2848C171.512 63.7611 171.512 64.1806 171.603 64.5435C171.739 65.0425 171.966 65.5074 172.283 65.9364C172.599 66.3674 172.952 66.7189 173.338 66.9911C173.722 67.2632 174.109 67.4673 174.495 67.6034C174.88 67.7395 175.184 67.7622 175.413 67.6715C175.096 66.9476 175.175 66.0064 175.651 64.8497C176.128 63.693 176.795 62.5042 177.657 61.2795C178.516 60.0548 179.446 58.9 180.444 57.8113C181.44 56.7227 182.302 55.9308 183.028 55.4318C183.345 55.205 183.379 54.7968 183.13 54.2071C182.88 53.6193 182.518 53.041 182.041 52.474C181.565 51.907 181.055 51.4534 180.512 51.1132C179.968 50.773 179.537 50.7163 179.22 50.9431C178.675 51.442 177.961 52.1565 177.078 53.0844C176.194 54.0143 175.164 55.4299 173.984 57.3332C173.667 57.1064 173.224 56.8342 172.657 56.5167C172.09 56.1992 171.467 55.9289 170.788 55.7002C170.108 55.4734 169.427 55.3487 168.749 55.326C168.069 55.3033 167.479 55.4507 166.982 55.7682C165.984 56.4486 165.088 57.2538 164.296 58.1818C163.502 59.1117 162.856 60.119 162.359 61.2077C161.86 62.2963 161.531 63.4416 161.372 64.6418C161.278 65.3619 161.261 66.0801 161.321 66.7926C160.599 68.0589 159.747 69.3479 158.755 70.6595C157.348 72.5193 155.922 74.1844 154.472 75.6567C153.02 77.1309 151.627 78.3197 150.289 79.2269C148.951 80.1341 147.921 80.5197 147.195 80.3836C146.696 80.2929 146.424 79.8979 146.379 79.1929C146.334 78.4898 146.379 77.6866 146.515 76.7794C146.651 75.8741 146.855 74.9782 147.127 74.0937C147.4 73.2092 147.647 72.542 147.876 72.0884C148.692 72.4513 149.439 72.6781 150.119 72.7688C150.8 72.8595 151.592 72.7915 152.499 72.5647C153.767 72.1564 154.912 71.3532 155.933 70.1511C156.953 68.951 157.813 67.6582 158.517 66.2748C159.22 64.8932 159.762 63.5664 160.148 62.2963C160.531 61.0281 160.726 60.1436 160.726 59.6446C160.817 58.6032 160.318 57.7414 159.231 57.061C158.46 56.6093 157.77 56.1897 157.158 55.8023C156.545 55.4186 155.944 55.1219 155.356 54.9177C154.767 54.7136 154.2 54.6229 153.657 54.6456C153.113 54.6683 152.523 54.8384 151.89 55.1559C150.847 55.7456 149.737 56.6754 148.558 57.9436C147.379 59.2137 146.256 60.686 145.192 62.3624C144.126 64.0408 143.162 65.8306 142.302 67.7338C142.119 68.1402 141.947 68.5427 141.782 68.9415C141.51 69.3781 141.232 69.8128 140.943 70.2494C140.036 71.6102 139.095 72.8784 138.122 74.0578C137.146 75.2371 136.16 76.2785 135.164 77.1857C134.166 78.0929 133.236 78.796 132.376 79.2931C132.376 78.3405 132.58 77.1857 132.988 75.8249C133.397 74.4641 133.873 73.0485 134.415 71.5762C134.96 70.1039 135.525 68.6977 136.114 67.3615C136.702 66.0253 137.178 64.9026 137.541 63.9954C137.768 63.4511 137.689 62.8973 137.303 62.3284C136.918 61.7614 136.385 61.2738 135.706 60.8675C135.026 60.4592 134.289 60.1871 133.497 60.051C132.703 59.9149 132.036 60.0056 131.491 60.3231C130.675 60.8221 129.836 61.4345 128.976 62.1583C128.114 62.8841 127.263 63.7006 126.426 64.6059C125.587 65.5131 124.748 66.4864 123.911 67.5297C123.071 68.573 122.289 69.6144 121.565 70.6577C121.61 70.4309 121.803 70.0018 122.143 69.3649C122.484 68.7299 122.892 67.9947 123.368 67.1555C123.844 66.3163 124.342 65.411 124.863 64.4358C125.383 63.4605 125.871 62.4985 126.324 61.546C126.46 61.1831 126.313 60.7541 125.882 60.2532C125.451 59.7542 124.895 59.3479 124.217 59.0285C123.536 58.711 122.845 58.5522 122.143 58.5522C121.44 58.5522 120.93 58.8697 120.614 59.5048C119.526 61.408 118.53 63.4719 117.623 65.6926C117.428 66.1689 117.239 66.6433 117.054 67.1139C116.105 68.7525 115.183 70.2513 114.291 71.6083C113.157 73.332 112.149 74.7363 111.265 75.823C110.38 76.9117 109.643 77.6488 109.055 78.0324C108.466 78.418 108.08 78.3613 107.899 77.8623C107.626 77.1819 107.876 75.6983 108.647 73.4095C109.418 71.1207 110.868 67.9361 112.998 63.8555C113.225 63.3566 113.111 62.8822 112.658 62.4286C112.204 61.9769 111.637 61.6121 110.958 61.34C110.278 61.0678 109.586 60.9317 108.885 60.9317C108.182 60.9317 107.717 61.1132 107.49 61.476C106.765 62.6554 106.063 64.071 105.383 65.7248C105.024 66.5979 104.684 67.4768 104.357 68.3613C103.578 68.5824 102.777 68.7261 101.951 68.7847C100.975 68.8527 99.9889 68.8074 98.9929 68.6486C97.9949 68.4898 97.0651 68.2063 96.2051 67.7981C96.7041 66.4373 97.3372 65.0557 98.1083 63.6495C98.8795 62.2453 99.7394 60.8845 100.692 59.569C101.645 58.2555 102.652 57.0308 103.718 55.8968C104.782 54.7647 105.882 53.7894 107.016 52.9729C107.515 52.5647 107.628 52.0109 107.356 51.3078C107.084 50.6048 106.642 49.9376 106.029 49.3026C105.417 48.6675 104.748 48.1799 104.024 47.8416C103.298 47.5014 102.709 47.49 102.257 47.8076C100.851 48.8055 99.4238 50.3005 97.9741 52.2944C96.5226 54.2903 95.1184 56.5431 93.7594 59.0606C92.3986 61.5762 91.1172 64.2279 89.9171 67.0156C88.7169 69.8034 87.651 72.5004 86.7211 75.1067C85.7931 77.7149 85.022 80.0944 84.4096 82.2471C83.7973 84.3999 83.423 86.0895 83.287 87.3123C83.1962 87.9927 83.1509 88.7298 83.1509 89.5217C83.1509 90.3137 83.2529 91.0621 83.4571 91.7652C83.6593 92.4777 83.9881 93.1014 84.4417 93.6438ZM167.596 78.6183C167.868 79.208 167.789 79.9773 167.358 80.9298C166.927 81.8824 166.337 82.8104 165.591 83.7176C164.842 84.6248 164.028 85.4072 163.143 86.063C162.259 86.7208 161.499 87.0723 160.866 87.1177C161.454 85.4412 162.372 83.933 163.62 82.5968C164.865 81.2587 166.192 79.9338 167.596 78.6183ZM149.885 67.6034C150.361 66.7435 150.926 65.8136 151.584 64.8157C152.24 63.8196 152.92 62.8784 153.623 61.9939C154.326 61.1094 154.903 60.5103 155.356 60.1927C155.266 60.9639 155.05 61.8918 154.71 62.9805C154.37 64.0691 153.916 65.0992 153.349 66.0744C152.782 67.0497 152.147 67.8548 151.446 68.4879C150.743 69.123 149.985 69.3725 149.169 69.2364C149.17 69.0077 149.409 68.4653 149.885 67.6034ZM89.7451 86.1311C90.0626 84.6134 90.4482 83.1506 90.9018 81.7463C91.0378 81.338 91.2174 80.7937 91.4461 80.1152C91.6729 79.4348 91.911 78.7204 92.1605 77.9739C92.41 77.2254 92.6595 76.5242 92.9089 75.8665C93.1584 75.2107 93.3739 74.723 93.5553 74.4055C93.8728 74.9045 94.0883 75.4148 94.2017 75.9345C94.3151 76.4562 94.3718 76.9665 94.3718 77.4635C94.4172 78.4161 94.2924 79.5029 93.9976 80.7276C93.7027 81.9523 93.3172 83.1751 92.8409 84.3998C92.3646 85.6246 91.8316 86.7907 91.2439 87.902C90.6542 89.0133 90.0664 89.9073 89.4767 90.5877C89.3368 89.1343 89.4276 87.6507 89.7451 86.1311Z" fill="white"/>
<path d="M109.429 58.3556C109.815 58.6731 110.268 58.9113 110.79 59.07C111.31 59.2288 111.832 59.2855 112.353 59.2401C112.873 59.1948 113.272 58.9907 113.544 58.6278C113.771 58.2195 114.043 57.7433 114.36 57.2008C114.678 56.6565 114.995 56.1027 115.313 55.5357C115.63 54.9687 115.935 54.4263 116.231 53.9047C116.526 53.3849 116.742 52.9861 116.878 52.714C117.15 52.2623 117.059 51.8068 116.606 51.3532C116.152 50.9015 115.574 50.5367 114.873 50.2645C114.169 49.9924 113.455 49.8676 112.731 49.8903C112.005 49.913 111.506 50.1285 111.236 50.5367C111.1 50.8089 110.919 51.1944 110.692 51.6934C110.465 52.1923 110.238 52.748 110.011 53.3585C109.785 53.9708 109.569 54.6285 109.365 55.3297C109.161 56.0328 109.014 56.7019 108.923 57.335C108.874 57.6998 109.044 58.0381 109.429 58.3556Z" fill="white"/>
<path d="M52.833 108.868C53.7572 105.392 54.5207 102.179 55.1217 99.2288C55.2219 98.6278 54.946 98.0665 54.2958 97.5411C53.6457 97.0156 52.8708 96.6168 51.9711 96.3409C51.0715 96.0669 50.1454 95.9535 49.1947 96.0026C48.244 96.0536 47.5447 96.3768 47.0949 96.9778C46.8946 97.2783 46.5185 97.766 45.9704 98.4407C45.4204 99.1154 44.8704 99.8034 44.3204 100.503C42.9709 99.3025 41.3191 98.4161 39.3686 97.8397C37.4181 97.2651 35.392 97.1536 33.2922 97.5014C30.3911 98.0022 27.4786 99.4519 24.5529 101.852C21.6272 104.252 18.9131 107.116 16.4127 110.442C13.9122 113.769 11.7368 117.282 9.88649 120.983C8.03618 124.685 6.73586 128.085 5.98553 131.185C5.83622 131.935 6.0479 132.824 6.62246 133.848C7.19702 134.874 7.98515 135.825 8.98496 136.698C9.98477 137.573 11.1339 138.261 12.4361 138.762C13.7364 139.263 14.9857 139.363 16.1878 139.062C16.9872 138.913 18.1004 138.25 19.5255 137.074C20.9506 135.901 22.5268 134.449 24.2524 132.723C25.978 130.998 27.8037 129.085 29.7296 126.985C31.6536 124.886 33.5058 122.797 35.2805 120.722C37.0552 118.647 38.7052 116.683 40.2323 114.833C41.7576 112.982 42.9955 111.457 43.9462 110.257C42.5457 115.859 40.6954 121.21 38.3952 126.311C36.0951 131.412 33.5947 135.925 30.8938 139.851C28.193 143.778 25.4298 146.94 22.6043 149.34C19.7788 151.741 17.1157 153.041 14.6153 153.241C13.6136 153.341 12.6894 153.117 11.8389 152.567C10.9884 152.017 10.2135 151.253 9.51416 150.278C8.81297 149.302 8.21384 148.153 7.71299 146.827C7.21214 145.502 6.81335 144.088 6.51284 142.587C4.91201 145.288 4.41305 147.889 5.01218 150.389C5.462 152.141 6.42401 153.64 7.9001 154.891C9.3743 156.141 11.1641 157.016 13.2639 157.516C15.3637 158.015 17.6771 158.08 20.2021 157.704C22.7271 157.329 25.2654 156.39 27.8169 154.891C30.2172 153.44 32.4795 151.467 34.6058 148.964C36.7302 146.464 38.6939 143.638 40.495 140.488C42.2962 137.337 43.9707 133.961 45.5205 130.361C47.0703 126.76 48.4463 123.147 49.6464 119.522C50.8447 115.895 51.9069 112.345 52.833 108.868ZM41.0564 103.767C40.9808 104.092 40.8938 104.33 40.7937 104.479C40.2928 105.281 39.4801 106.405 38.3556 107.855C37.231 109.306 35.9042 110.93 34.379 112.731C32.8519 114.532 31.1906 116.445 29.3894 118.469C27.5882 120.495 25.7625 122.47 23.9141 124.396C22.0638 126.322 20.2494 128.134 18.4747 129.835C16.6981 131.536 15.0859 132.962 13.6363 134.111C13.5852 133.211 13.8234 131.973 14.3488 130.397C14.8742 128.821 15.6113 127.048 16.562 125.071C17.5107 123.096 18.6259 121.021 19.8997 118.845C21.1736 116.67 22.5363 114.557 23.9878 112.506C25.4374 110.455 26.9381 108.556 28.4879 106.804C30.0377 105.054 31.5383 103.604 32.988 102.453C34.4376 101.304 35.8003 100.554 37.076 100.202C38.3518 99.8525 39.4631 100.077 40.4138 100.877C40.6632 101.077 40.8504 101.34 40.977 101.665C41.1017 101.99 41.1641 102.34 41.1641 102.716C41.1679 103.092 41.1301 103.442 41.0564 103.767Z" fill="white"/>
<path d="M134.712 127.135C136.411 122.534 138.488 118.108 140.937 113.857C143.438 109.656 146.012 106.356 148.664 103.956C149.013 103.606 149.163 103.306 149.113 103.056C149.013 102.257 148.288 101.457 146.938 100.656L146.488 100.431C145.787 99.8809 145.15 99.5067 144.576 99.3064C143.999 99.1079 143.513 99.0059 143.113 99.0059C142.763 99.0059 142.387 99.1306 141.988 99.3801C140.688 100.58 139.299 102.268 137.825 104.443C136.348 106.619 134.812 109.282 133.211 112.432C131.61 115.634 130.161 118.822 128.86 121.998C128.204 123.6 127.592 125.201 127.025 126.796C126.738 126.793 126.524 126.906 126.386 127.137C125.885 128.187 125.248 129.475 124.474 131C123.697 132.525 122.848 134.037 121.922 135.538C120.996 137.038 120.034 138.439 119.034 139.739C118.032 141.039 117.059 141.99 116.108 142.589C115.959 141.64 116.057 140.24 116.409 138.388C116.759 136.537 117.222 134.576 117.796 132.499C118.371 130.423 119.008 128.424 119.709 126.498C120.408 124.574 121.034 123.009 121.584 121.809C121.784 121.359 121.646 120.847 121.172 120.27C120.695 119.696 120.083 119.233 119.335 118.883C118.584 118.533 117.821 118.358 117.046 118.358C116.271 118.358 115.732 118.683 115.434 119.333C114.632 121.085 113.77 122.858 112.846 124.659C111.92 126.46 110.971 128.221 109.996 129.947C109.021 131.673 108.083 133.311 107.184 134.861C106.284 136.411 105.445 137.775 104.67 138.949C103.893 140.125 103.219 141.062 102.644 141.761C102.069 142.463 101.656 142.837 101.406 142.886C101.455 142.035 101.756 140.724 102.306 138.947C102.856 137.173 103.479 135.322 104.181 133.396C104.88 131.472 105.579 129.671 106.28 127.995C106.98 126.32 107.53 125.131 107.93 124.432C108.129 124.082 108.044 123.695 107.668 123.27C107.293 122.844 106.793 122.482 106.167 122.181C105.541 121.881 104.878 121.693 104.179 121.618C103.478 121.542 102.952 121.68 102.602 122.03C102.253 122.33 101.826 122.967 101.327 123.943C101.092 124.4 100.849 124.908 100.597 125.464C100.59 125.47 100.582 125.473 100.576 125.481C99.6257 127.431 98.3745 129.433 96.8247 131.482C95.2731 133.532 93.6987 135.371 92.0979 136.995C90.497 138.62 88.9586 139.934 87.4844 140.934C86.0083 141.935 84.8705 142.359 84.071 142.209C83.521 142.109 83.2205 141.673 83.1714 140.896C83.1204 140.121 83.1714 139.235 83.3207 138.233C83.47 137.233 83.6949 136.245 83.9954 135.269C84.2959 134.294 84.57 133.557 84.8214 133.056C85.721 133.457 86.5469 133.706 87.2973 133.806C88.0476 133.907 88.9227 133.833 89.9225 133.582C91.3211 133.132 92.5855 132.243 93.71 130.918C94.8346 129.594 95.7852 128.169 96.5601 126.643C97.335 125.118 97.9342 123.655 98.3613 122.255C98.7866 120.854 98.9982 119.881 98.9982 119.329C99.0984 118.18 98.5484 117.229 97.3483 116.479C96.4978 115.98 95.7361 115.517 95.0595 115.092C94.3848 114.666 93.7214 114.341 93.0712 114.116C92.421 113.891 91.7955 113.791 91.1963 113.816C90.5953 113.842 89.9451 114.029 89.2458 114.379C88.0948 115.029 86.8701 116.056 85.5698 117.454C84.2695 118.855 83.0315 120.48 81.8559 122.33C80.6804 124.181 79.6163 126.156 78.6675 128.257C78.3954 128.858 78.1459 129.452 77.9134 130.04C77.7584 130.348 77.5978 130.665 77.4296 130.996C76.6528 132.521 75.8042 134.033 74.8781 135.534C73.952 137.035 72.99 138.435 71.9901 139.735C70.9884 141.036 70.0132 141.986 69.0644 142.585C68.9151 141.637 69.0134 140.236 69.3649 138.384C69.7146 136.534 70.1776 134.572 70.7522 132.495C71.3268 130.42 71.9637 128.42 72.6649 126.494C73.3642 124.57 73.9898 123.005 74.5398 121.805C74.7382 121.355 74.6021 120.843 74.1277 120.266C73.6515 119.692 73.0391 119.229 72.2907 118.879C71.5403 118.53 70.7768 118.354 70.0019 118.354C69.2251 118.354 68.6883 118.679 68.3897 119.329C67.5883 121.081 66.7265 122.854 65.8023 124.655C64.8762 126.456 63.9274 128.218 62.9522 129.943C61.9769 131.669 61.0395 133.307 60.1398 134.857C59.2402 136.407 58.401 137.772 57.6261 138.945C56.8494 140.121 56.1746 141.058 55.6001 141.758C55.0236 142.459 54.6116 142.833 54.3621 142.882C54.4113 142.032 54.7118 140.72 55.2618 138.943C55.8117 137.169 56.4354 135.318 57.1366 133.393C57.8359 131.468 58.5352 129.667 59.2364 127.991C59.9357 126.316 60.4857 125.128 60.8864 124.428C61.0848 124.079 60.9998 123.691 60.6237 123.266C60.2495 122.841 59.7486 122.478 59.123 122.177C58.4974 121.877 57.834 121.69 57.1347 121.614C56.4335 121.538 55.9081 121.676 55.5585 122.026C55.2088 122.327 54.7817 122.963 54.2827 123.939C53.7819 124.914 53.2451 126.114 52.6706 127.539C52.096 128.964 51.5214 130.503 50.945 132.153C50.3704 133.803 49.8696 135.441 49.4443 137.067C49.021 138.692 48.6827 140.206 48.4313 141.605C48.1818 143.005 48.0816 144.156 48.1308 145.056C48.1818 145.857 48.5806 146.556 49.3309 147.155C50.0813 147.757 50.9431 148.193 51.9183 148.469C52.8936 148.745 53.8802 148.832 54.8819 148.732C55.8817 148.632 56.6566 148.282 57.2066 147.681C58.7564 146.082 59.9319 144.706 60.7314 143.555C61.5309 142.406 62.3814 141.155 63.2829 139.803C63.0826 141.705 63.3963 143.154 64.2204 144.154C65.0463 145.156 66.2578 146.029 67.8586 146.779C68.7582 147.18 69.6843 147.093 70.635 146.517C71.5838 145.942 72.5345 145.105 73.4851 144.003C74.3659 142.984 75.2145 141.799 76.031 140.457C76.2219 141.812 76.7208 142.92 77.5354 143.778C77.9852 144.228 78.5617 144.704 79.261 145.203C79.9603 145.704 80.7352 146.141 81.5857 146.517C82.4362 146.891 83.2848 147.129 84.1353 147.229C84.9858 147.329 85.7853 147.18 86.5356 146.779C88.1364 145.88 89.7618 144.729 91.4118 143.328C93.0315 141.954 94.5794 140.435 96.0555 138.77C95.823 139.758 95.6246 140.707 95.4639 141.603C95.2145 143.003 95.1143 144.154 95.1634 145.054C95.2145 145.855 95.6133 146.554 96.3636 147.154C97.1139 147.753 97.9757 148.191 98.951 148.467C99.9262 148.743 100.913 148.83 101.915 148.73C102.914 148.63 103.689 148.28 104.239 147.679C105.789 146.08 106.965 144.704 107.766 143.553C108.565 142.404 109.416 141.153 110.316 139.801C110.115 141.703 110.429 143.152 111.253 144.152C112.079 145.154 113.29 146.027 114.891 146.777C115.791 147.178 116.715 147.091 117.668 146.515C118.616 145.94 119.567 145.103 120.518 144.001C121.467 142.901 122.379 141.614 123.256 140.138C123.277 140.104 123.296 140.068 123.317 140.034C122.903 142.5 122.744 144.649 122.842 146.477C122.842 146.777 122.856 147.078 122.88 147.377C122.907 147.677 122.943 147.953 122.994 148.203C123.644 150.803 124.746 152.705 126.294 153.905C127.843 155.154 129.095 155.78 130.045 155.78C130.544 155.829 130.958 155.866 131.283 155.893C131.608 155.918 131.871 155.904 132.071 155.855C133.02 155.855 133.846 155.555 134.547 154.956C132.345 154.904 131.047 154.029 130.646 152.33C130.497 151.48 130.384 150.743 130.308 150.117C130.232 149.492 130.17 148.979 130.121 148.579C130.021 146.229 130.27 143.529 130.871 140.476C131.637 136.188 132.911 131.737 134.712 127.135ZM87.0402 128.11C87.5656 127.161 88.1893 126.135 88.9151 125.035C89.639 123.935 90.3893 122.897 91.1661 121.922C91.941 120.947 92.5779 120.285 93.0788 119.934C92.9786 120.784 92.7405 121.809 92.3662 123.009C91.992 124.209 91.4912 125.347 90.8656 126.422C90.24 127.498 89.5407 128.386 88.7658 129.085C87.989 129.786 87.1536 130.06 86.2521 129.911C86.2521 129.66 86.5148 129.061 87.0402 128.11Z" fill="white"/>
<path d="M184.821 125.634C183.921 125.184 183.12 125.008 182.421 125.109C181.47 125.258 180.357 125.659 179.083 126.309C177.807 126.959 176.52 127.722 175.22 128.598C173.92 129.473 172.632 130.361 171.357 131.261C170.081 132.16 168.968 132.91 168.019 133.512C167.068 132.412 166.543 131.049 166.443 129.423C166.343 127.798 166.492 126.235 166.892 124.734C167.291 123.234 167.906 121.947 168.73 120.871C169.555 119.796 170.442 119.284 171.393 119.333C171.292 119.584 171.141 119.934 170.943 120.384C170.742 120.833 170.569 121.31 170.417 121.809C170.268 122.309 170.141 122.822 170.043 123.347C169.943 123.873 169.943 124.336 170.043 124.734C170.192 125.284 170.444 125.798 170.793 126.273C171.143 126.749 171.531 127.135 171.956 127.435C172.381 127.736 172.806 127.961 173.232 128.11C173.657 128.259 173.993 128.286 174.245 128.185C173.895 127.386 173.982 126.348 174.507 125.073C175.033 123.797 175.77 122.485 176.72 121.134C177.669 119.784 178.696 118.509 179.795 117.309C180.895 116.108 181.846 115.233 182.646 114.683C182.995 114.434 183.033 113.984 182.759 113.334C182.483 112.684 182.084 112.047 181.559 111.421C181.033 110.796 180.47 110.297 179.871 109.921C179.27 109.546 178.796 109.484 178.446 109.733C177.845 110.283 177.059 111.072 176.084 112.096C175.108 113.122 173.971 114.683 172.67 116.785C172.321 116.536 171.833 116.235 171.207 115.885C170.582 115.536 169.894 115.235 169.143 114.986C168.393 114.736 167.643 114.598 166.892 114.574C166.142 114.549 165.492 114.712 164.942 115.061C163.842 115.812 162.854 116.7 161.978 117.724C161.103 118.751 160.391 119.862 159.841 121.062C159.291 122.262 158.928 123.527 158.752 124.85C158.648 125.645 158.629 126.435 158.696 127.222C157.9 128.618 156.959 130.041 155.864 131.487C154.313 133.538 152.738 135.377 151.137 137C149.537 138.626 147.998 139.939 146.524 140.939C145.048 141.941 143.91 142.364 143.111 142.215C142.561 142.115 142.26 141.678 142.211 140.901C142.16 140.127 142.211 139.24 142.36 138.238C142.51 137.239 142.735 136.25 143.035 135.275C143.336 134.3 143.61 133.563 143.861 133.062C144.761 133.462 145.587 133.712 146.337 133.812C147.087 133.912 147.962 133.838 148.962 133.587C150.363 133.137 151.625 132.249 152.75 130.924C153.874 129.599 154.825 128.174 155.6 126.649C156.375 125.124 156.974 123.661 157.401 122.26C157.826 120.86 158.038 119.887 158.038 119.335C158.138 118.186 157.588 117.235 156.388 116.485C155.537 115.986 154.776 115.522 154.099 115.097C153.424 114.672 152.761 114.347 152.111 114.122C151.461 113.897 150.835 113.797 150.236 113.821C149.635 113.848 148.985 114.035 148.285 114.385C147.134 115.035 145.91 116.061 144.609 117.46C143.309 118.86 142.071 120.486 140.896 122.336C139.72 124.186 138.656 126.161 137.707 128.263C136.758 130.363 136.046 132.389 135.57 134.339C135.095 136.29 134.908 138.102 135.006 139.779C135.107 141.455 135.632 142.791 136.583 143.791C137.032 144.241 137.609 144.717 138.308 145.216C139.007 145.717 139.782 146.154 140.633 146.53C141.483 146.904 142.332 147.142 143.184 147.242C144.035 147.343 144.834 147.193 145.585 146.793C147.184 145.893 148.811 144.742 150.461 143.341C152.111 141.941 153.687 140.391 155.188 138.69C156.688 136.991 158.025 135.177 159.2 133.251C159.525 132.72 159.828 132.187 160.111 131.654C160.334 132.022 160.578 132.381 160.85 132.727C161.774 133.903 162.687 135.141 163.589 136.441C161.687 137.893 159.826 139.442 158 141.092C156.174 142.742 154.687 144.519 153.536 146.418C152.786 147.669 152.425 148.769 152.447 149.718C152.474 150.669 152.748 151.482 153.273 152.156C153.799 152.831 154.524 153.343 155.449 153.695C156.375 154.044 157.374 154.258 158.45 154.332C159.525 154.407 160.625 154.332 161.75 154.107C162.874 153.882 163.887 153.519 164.789 153.018C166.138 152.268 167.414 151.344 168.614 150.242C169.814 149.142 170.776 147.953 171.502 146.679C172.226 145.403 172.64 144.092 172.74 142.74C172.84 141.391 172.515 140.04 171.765 138.69C171.514 138.289 171.264 137.915 171.015 137.566C170.763 137.216 170.514 136.842 170.264 136.441C170.663 135.991 171.527 135.279 172.852 134.303C174.177 133.328 175.615 132.328 177.165 131.302C178.714 130.278 180.215 129.352 181.667 128.526C183.116 127.7 184.216 127.212 184.967 127.063C185.267 127.014 185.503 127.014 185.679 127.063C185.853 127.114 185.991 127.15 186.091 127.176C186.191 127.203 186.278 127.203 186.354 127.176C186.429 127.152 186.565 127.038 186.766 126.838C186.371 126.484 185.721 126.084 184.821 125.634ZM146.076 128.11C146.601 127.161 147.225 126.135 147.951 125.035C148.675 123.935 149.425 122.897 150.202 121.922C150.977 120.947 151.614 120.285 152.115 119.934C152.014 120.784 151.776 121.809 151.402 123.009C151.028 124.209 150.527 125.347 149.901 126.422C149.276 127.498 148.577 128.386 147.802 129.085C147.025 129.786 146.189 130.06 145.288 129.911C145.288 129.66 145.551 129.061 146.076 128.11ZM165.354 142.812C164.878 143.863 164.229 144.887 163.404 145.887C162.578 146.889 161.678 147.751 160.703 148.475C159.728 149.2 158.89 149.588 158.189 149.637C158.839 147.787 159.85 146.123 161.228 144.649C162.602 143.175 164.065 141.712 165.617 140.261C165.917 140.913 165.828 141.763 165.354 142.812Z" fill="white"/>
</svg>
