<svg width="84" height="178" viewBox="0 0 84 178" fill="none" xmlns="http://www.w3.org/2000/svg">
<path d="M76.5856 57.7554C72.0175 52.3216 66.0566 49.6047 58.703 49.6047C51.3495 49.6047 45.388 52.3216 40.8187 57.7554C36.2506 63.1891 33.9665 70.2802 33.9665 79.0285V96.7484C33.9665 96.7527 33.9699 96.7561 33.9742 96.7561C33.9785 96.7561 33.9819 96.7596 33.9819 96.7638V98.2151C33.9819 101.761 33.1374 104.597 31.4483 106.724C29.7592 108.852 27.5739 109.915 24.8924 109.915C22.2098 109.915 20.0239 108.852 18.3348 106.724C16.6458 104.597 15.8001 101.761 15.7978 98.2151V29.4278C15.7978 25.8823 16.6423 23.0459 18.3314 20.9186C20.0205 18.7913 22.2064 17.7276 24.889 17.7276C27.5717 17.7276 29.7569 18.7913 31.4449 20.9186C33.1328 23.0459 33.9773 25.8823 33.9785 29.4278V40.9625C33.9785 42.6193 35.3216 43.9625 36.9785 43.9625H46.4782C48.1351 43.9625 49.4782 42.6193 49.4782 40.9625V29.4278C49.4782 20.6822 47.1941 13.5912 42.626 8.15471C38.0578 2.71824 32.0958 0 24.74 0C17.383 0 11.4204 2.71688 6.85223 8.15063C2.28408 13.5844 0 20.6768 0 29.4278V98.2151C0 106.961 2.28408 114.051 6.85223 119.486C11.4204 124.921 17.3818 127.638 24.7365 127.637C32.0878 127.637 38.0487 124.92 42.6191 119.486C47.1896 114.052 49.4737 106.962 49.4714 98.2151V80.4952C49.4714 80.4909 49.4679 80.4875 49.4637 80.4875C49.4594 80.4875 49.456 80.484 49.456 80.4798V79.0346C49.456 75.4891 50.3005 72.6527 51.9896 70.5254C53.6786 68.398 55.8645 67.3344 58.5471 67.3344C61.2298 67.3344 63.4157 68.398 65.1047 70.5254C66.7938 72.6527 67.6383 75.4891 67.6383 79.0346V147.81C67.6383 151.355 66.7938 154.192 65.1047 156.319C63.4157 158.446 61.2298 159.51 58.5471 159.51C55.8645 159.51 53.6786 158.446 51.9896 156.319C50.3005 154.192 49.456 151.355 49.456 147.81V136.273C49.456 134.616 48.1128 133.273 46.456 133.273H36.9631C35.3062 133.273 33.9631 134.616 33.9631 136.273V147.81C33.9631 156.555 36.2471 163.646 40.8153 169.083C45.3834 174.519 51.3449 177.236 58.6996 177.233C66.0543 177.233 72.0152 174.517 76.5822 169.083C81.1492 163.649 83.4333 156.558 83.4344 147.81V79.0285C83.439 70.2815 81.1561 63.1905 76.5856 57.7554Z" fill="#ED5466"/>
</svg>
