<svg xmlns="http://www.w3.org/2000/svg" viewBox="0 0 541.24 400.25"><defs><style>.cls-1{fill:none;stroke:#000;stroke-miterlimit:10;stroke-width:5px;}</style></defs><g id="Calque_2" data-name="Calque 2"><g id="Calque_1-2" data-name="Calque 1"><path class="cls-1" d="M435.28,397.75h0a150,150,0,0,1-150-150h0"/><path class="cls-1" d="M255.28,247.75h0a150,150,0,0,1-150,150h0"/><path class="cls-1" d="M285.53,167.5a50,50,0,0,0,50,50h0a50,50,0,0,0,50-50"/><path class="cls-1" d="M385.53,267.5a100,100,0,0,0,100-100h0a100,100,0,0,0-100-100h0a100,100,0,0,0-100,100"/><path class="cls-1" d="M255.28,167.5a50,50,0,0,1-50,50h0a50,50,0,0,1-50-50"/><path class="cls-1" d="M155.28,267.5a100,100,0,0,1-100-100h0a100,100,0,0,1,100-100h0a100,100,0,0,1,100,100"/><path class="cls-1" d="M327.78,60a57.5,57.5,0,0,0-57.5-57.5h0A57.5,57.5,0,0,0,212.78,60"/><circle class="cls-1" cx="155.53" cy="140.25" r="17.5"/><rect x="148.03" y="137.75" width="15" height="5"/><circle class="cls-1" cx="385.53" cy="140.25" r="17.5"/><rect x="378.03" y="137.75" width="15" height="5"/><path class="cls-1" d="M516.43,200.66a25,25,0,1,0-8.68-49.24,37.5,37.5,0,0,0-13-73.87"/><path class="cls-1" d="M23.31,200.61a25,25,0,0,1,9.54-49.08A37.5,37.5,0,0,1,47.16,77.91"/></g></g></svg>