<svg xmlns="http://www.w3.org/2000/svg" viewBox="0 0 629.91 537.7"><defs><style>.cls-1{fill:none;stroke:#000;stroke-miterlimit:10;stroke-width:5px;}.cls-2{font-size:80px;font-family:DarkerGrotesque-Medium, Darker Grotesque;font-weight:500;}.cls-3{letter-spacing:-0.01em;}</style></defs><g id="Calque_2" data-name="Calque 2"><g id="Calque_1-2" data-name="Calque 1"><path class="cls-1" d="M479.61,397.75h0a150,150,0,0,1-150-150h0"/><path class="cls-1" d="M299.61,247.75h0a150,150,0,0,1-150,150h0"/><path class="cls-1" d="M329.86,167.5a50,50,0,0,0,50,50h0a50,50,0,0,0,50-50"/><path class="cls-1" d="M429.86,267.5a100,100,0,0,0,100-100h0a100,100,0,0,0-100-100h0a100,100,0,0,0-100,100"/><path class="cls-1" d="M299.61,167.5a50,50,0,0,1-50,50h0a50,50,0,0,1-50-50"/><path class="cls-1" d="M199.61,267.5a100,100,0,0,1-100-100h0a100,100,0,0,1,100-100h0a100,100,0,0,1,100,100"/><path class="cls-1" d="M372.11,60a57.5,57.5,0,0,0-57.5-57.5h0A57.5,57.5,0,0,0,257.11,60"/><circle class="cls-1" cx="199.86" cy="140.25" r="17.5"/><rect x="192.36" y="137.75" width="15" height="5"/><circle class="cls-1" cx="429.86" cy="140.25" r="17.5"/><rect x="422.36" y="137.75" width="15" height="5"/><path class="cls-1" d="M560.76,200.66a25,25,0,1,0-8.68-49.24,37.5,37.5,0,0,0-13-73.87"/><path class="cls-1" d="M67.64,200.61a25,25,0,0,1,9.54-49.08A37.5,37.5,0,0,1,91.49,77.91"/><text class="cls-2" transform="translate(0 514.02)">Guillaume Mengelat<tspan class="cls-3" x="572.79" y="0">t</tspan><tspan x="593.83" y="0">e</tspan></text></g></g></svg>