<svg width="24" height="24" viewBox="0 0 24 24" fill="none" xmlns="http://www.w3.org/2000/svg">
<path d="M24 4.60222C24 3.92608 23.4518 3.37793 22.7757 3.37793H1.22429C0.548155 3.37793 0 3.92608 0 4.60222V19.3978C0 20.074 0.548155 20.6221 1.22429 20.6221H22.7757C23.4518 20.6221 24 20.074 24 19.3978V4.60222ZM21.5514 7.09569C21.5514 7.45604 21.3933 7.79818 21.119 8.03178L16.4243 12.0292L21.1235 16.0304C21.395 16.2615 21.5514 16.6002 21.5514 16.9568C21.5514 17.6288 21.0067 18.1736 20.3346 18.1736H20.3242C20.0269 18.1736 19.7391 18.0678 19.5127 17.875L14.5357 13.6371L12.7937 15.1203C12.5649 15.3151 12.2824 15.4124 11.9999 15.4124C11.7174 15.4124 11.4349 15.3151 11.2062 15.1203L9.46417 13.6371L4.49518 17.8681C4.26363 18.0653 3.96939 18.1735 3.66528 18.1735C2.99331 18.1735 2.4485 17.6288 2.4485 16.9568C2.4485 16.6002 2.60496 16.2615 2.87643 16.0303L7.57574 12.0291L2.94597 8.08703C2.63043 7.81834 2.44858 7.42469 2.44858 7.01023C2.44858 6.35646 2.97853 5.82643 3.63239 5.82643C3.91365 5.82643 4.18568 5.92657 4.39985 6.10891L11.613 12.2506C11.8361 12.4405 12.1641 12.4405 12.3872 12.2506L19.6003 6.10891C19.8145 5.92657 20.0865 5.82643 20.3677 5.82643C21.0215 5.82643 21.5514 6.35638 21.5514 7.01015V7.09569Z" fill="black"/>
</svg>
