<svg width="44" height="44" viewBox="0 0 44 44" fill="none" xmlns="http://www.w3.org/2000/svg">
<path d="M22.2267 23.1514C22.2267 23.1514 22.1918 23.1514 22.1569 23.1514C20.9357 26.7105 19.7144 30.2696 18.4932 33.8287C21.0752 34.5614 23.5875 34.4916 26.0649 33.6542C24.7739 30.13 23.5177 26.6407 22.2267 23.1514Z" fill="black"/>
<path d="M10.7473 17.0452C10.7124 17.0452 10.7124 17.0452 10.6775 17.0452C9.31667 20.2902 9.24689 23.5701 10.6426 26.8501C11.829 29.6415 13.8179 31.7002 16.5395 33.0959C16.5744 33.0959 16.5744 33.061 16.6093 33.061C14.6553 27.6875 12.7013 22.3838 10.7473 17.0452Z" fill="black"/>
<path d="M29.5544 18.4758C29.2752 17.9524 28.9612 17.4639 28.6472 16.9405C28.368 16.452 28.1587 15.9286 28.0889 15.3703C27.9493 14.2188 28.7169 13.1371 29.8684 12.9278C29.9731 12.8929 30.1127 12.8929 30.322 12.858C26.9025 9.99677 23.0992 8.98488 18.8422 10.0666C15.8066 10.8342 13.4687 12.5789 11.6543 15.2307C12.3173 15.2307 12.9104 15.2307 13.4687 15.2307C14.2015 15.1958 14.9342 15.126 15.667 15.0911C16.0159 15.0562 16.2253 15.2307 16.2602 15.5099C16.2951 15.8239 16.1555 16.0333 15.7717 16.0681C15.667 16.103 15.5623 16.103 15.4576 16.103C15.1087 16.1379 14.7947 16.1728 14.4108 16.2077C15.9112 20.674 17.4116 25.1054 18.8771 29.5019C18.9469 29.467 18.9818 29.4321 18.9818 29.3972C19.8541 26.8152 20.7265 24.2331 21.5639 21.6161C21.5988 21.5114 21.5639 21.337 21.529 21.2323C20.9707 19.6272 20.3775 18.057 19.7844 16.452C19.7146 16.2426 19.6099 16.1728 19.4005 16.1728C19.0516 16.1728 18.7027 16.103 18.3537 16.0681C18.0746 16.0333 17.935 15.8239 17.935 15.5447C17.9699 15.2656 18.1444 15.0911 18.4235 15.0911C18.5631 15.0911 18.6678 15.126 18.8073 15.126C20.1333 15.1609 21.4941 15.1958 22.82 15.2307C23.5179 15.2307 24.2506 15.1609 24.9485 15.126C25.2625 15.126 25.4719 15.3005 25.5068 15.5796C25.5417 15.8588 25.3672 16.0681 25.0881 16.103C24.9485 16.1379 24.8438 16.1379 24.7043 16.1379C24.3553 16.1728 24.0064 16.2077 23.6575 16.2426C25.1579 20.674 26.6234 25.0356 28.1238 29.5019C28.1587 29.3972 28.1936 29.3624 28.1936 29.3275C28.8216 27.2688 29.4148 25.2101 30.0429 23.1514C30.5314 21.5114 30.3918 19.9413 29.5544 18.4758Z" fill="black"/>
<path d="M32.9389 0.0174942H11.0262C4.9548 0.0174942 0 4.97229 0 11.0437V32.9913C0 39.0278 4.9548 43.9826 11.0262 43.9826H32.9738C39.0452 43.9826 44 39.0278 44 32.9564V11.0437C43.9651 4.97229 39.0103 0.0174942 32.9389 0.0174942ZM35.5908 22.6979C35.5908 22.8026 35.5908 22.8724 35.5908 22.977C35.4861 24.7915 35.0325 26.5361 34.1951 28.1412C31.9968 32.2935 28.6122 34.736 23.9366 35.5036C23.5178 35.5734 23.0991 35.6083 22.6804 35.6083H21.2847C21.2149 35.6083 21.1102 35.6083 21.0056 35.6083C19.1911 35.5036 17.4814 35.0849 15.9112 34.2475C11.724 32.0492 9.28152 28.6646 8.51388 23.9889C8.4092 23.5353 8.37431 23.1515 8.37431 22.6979V21.3022C8.37431 21.2324 8.37431 21.1277 8.37431 21.023C8.47898 19.1737 8.93259 17.4291 9.80492 15.824C12.0032 11.7066 15.3878 9.29902 19.9937 8.53137C20.4124 8.46159 20.866 8.42669 21.2847 8.42669H22.6804C22.7851 8.42669 22.8549 8.42669 22.9596 8.42669C24.7391 8.53137 26.4489 8.95009 28.0539 9.78752C32.2411 11.9858 34.7185 15.3704 35.4861 20.0809C35.5559 20.4997 35.5908 20.9184 35.5908 21.3371V22.6979Z" fill="black"/>
<path d="M32.8693 16.1729C32.9042 17.115 32.9042 17.9873 32.7646 18.8945C32.5901 19.9064 32.2761 20.8834 31.9272 21.8604C30.7059 25.245 29.5544 28.6296 28.403 32.0142C28.3332 32.1887 28.2634 32.3981 28.2285 32.5725C28.2634 32.5725 28.2634 32.6074 28.2983 32.6074C31.6131 30.5487 33.6369 27.5828 34.2301 23.7097C34.6139 21.0579 34.1603 18.5456 32.8693 16.1729Z" fill="black"/>
</svg>
