<svg width="44" height="44" viewBox="0 0 44 44" fill="none" xmlns="http://www.w3.org/2000/svg">
<path d="M42.285 9.17544C40.6967 7.28741 37.7643 6.51727 32.1641 6.51727H11.8354C6.10706 6.51727 3.12499 7.33709 1.5427 9.34718C0 11.307 0 14.1947 0 18.1913V25.8089C0 33.5516 1.8304 37.4828 11.8354 37.4828H32.1643C37.0207 37.4828 39.7118 36.8032 41.4528 35.137C43.2382 33.4284 44 30.6386 44 25.8089V18.1913C44 13.9766 43.8806 11.0718 42.285 9.17544ZM28.2481 23.0518L19.0169 27.8763C18.8106 27.9842 18.5849 28.0377 18.3595 28.0377C18.1043 28.0377 17.8497 27.969 17.6241 27.8324C17.1995 27.5751 16.9401 27.1148 16.9401 26.6183V17.0002C16.9401 16.5046 17.1987 16.0447 17.6226 15.7872C18.0465 15.5297 18.5738 15.5122 19.0137 15.7407L28.2449 20.5341C28.7145 20.778 29.0095 21.2628 29.0102 21.7918C29.0108 22.3212 28.7171 22.8068 28.2481 23.0518Z" fill="black"/>
</svg>
